 <svg  version="1.0" xmlns="http://www.w3.org/2000/svg"  width="188.000000pt" height="230.000000pt" viewBox="0 0 188.000000 230.000000"  preserveAspectRatio="xMidYMid meet">  <g transform="translate(0.000000,230.000000) scale(0.050000,-0.050000)" fill="#000000" stroke="none"> <path d="M1780 4550 c-18 -22 -32 -25 -51 -9 -16 13 -30 14 -37 2 -12 -19 309 -205 326 -190 5 4 -7 23 -25 43 -18 21 -33 61 -33 89 0 29 -9 58 -20 65 -11 7 -20 5 -20 -5 0 -10 -14 -35 -31 -56 -30 -37 -31 -36 -24 26 9 72 -38 91 -85 35z"/> <path d="M70 4540 c-7 -11 -1 -20 12 -20 13 0 55 -24 93 -52 l68 -52 -55 -58 c-71 -75 -50 -95 42 -38 117 73 275 19 179 -61 -19 -16 -29 -50 -25 -87 7 -74 43 -82 52 -12 4 28 30 69 58 93 l52 43 -128 65 c-70 35 -164 89 -208 118 -118 80 -126 83 -140 61z"/> <path d="M1561 4435 c0 -25 13 -67 29 -95 79 -138 4 -263 -125 -209 -77 32 -355 41 -306 10 26 -16 25 -28 -5 -90 -60 -128 -33 -155 41 -41 48 74 71 82 154 50 l51 -19 -40 -66 c-42 -68 -53 -155 -21 -155 11 0 30 36 43 80 30 98 74 115 190 70 85 -32 87 -35 50 -67 -47 -40 -71 -115 -43 -133 12 -7 29 9 39 35 52 137 175 130 165 -10 -8 -117 41 -133 77 -25 26 78 28 79 119 48 46 -17 58 -29 43 -44 -27 -27 -29 -114 -3 -114 11 0 29 17 40 39 31 56 85 66 172 29 65 -27 72 -35 43 -51 -36 -20 -47 -97 -14 -97 11 0 20 13 20 29 0 50 76 57 139 12 l58 -42 -16 56 c-30 99 -45 125 -72 125 -42 0 -149 68 -149 95 0 39 70 29 110 -15 49 -55 58 -38 24 44 -38 89 -345 356 -567 491 -192 116 -247 130 -246 60z m314 -202 c46 -45 65 -150 33 -182 -81 -82 -248 -47 -248 52 0 150 120 223 215 130z m294 -232 c101 -106 12 -164 -124 -81 -77 47 -80 67 -21 109 62 43 80 40 145 -28z"/> <path d="M51 4402 c-46 -75 -35 -325 17 -380 30 -31 51 -69 48 -84 -3 -15 7 -25 22 -22 65 14 145 -40 133 -89 -14 -55 -6 -58 58 -16 51 34 56 31 146 -78 36 -45 9 -99 -43 -85 -23 6 -49 12 -57 12 -9 0 -10 25 -3 55 l14 55 -48 -44 c-37 -33 -78 -45 -183 -50 -153 -7 -147 4 -106 -196 15 -71 28 -105 29 -75 2 52 7 55 102 55 55 0 100 8 100 18 0 23 -110 62 -173 62 -37 0 -47 11 -47 50 0 61 56 65 268 20 161 -34 170 -40 127 -83 -30 -30 -37 -29 -95 20 -113 95 -135 67 -30 -39 85 -85 72 -163 -22 -127 -137 52 -201 -2 -68 -57 84 -36 91 -51 60 -133 -13 -36 -34 -51 -70 -51 -58 0 -64 -16 -17 -50 27 -19 29 -35 13 -82 -20 -57 1 -148 35 -148 18 0 104 181 138 290 122 386 250 449 575 282 146 -75 224 -97 476 -131 372 -51 541 -117 889 -348 125 -84 231 -150 234 -147 24 24 -48 153 -107 191 l-70 46 45 48 c62 66 33 87 -42 32 -77 -57 -171 -17 -108 46 46 45 19 66 -30 22 -49 -44 -88 -22 -72 41 13 54 -17 65 -44 17 -15 -26 -27 -27 -71 -7 -60 27 -65 39 -30 74 19 19 17 24 -8 24 -17 0 -42 -13 -55 -29 -36 -43 -140 -2 -126 50 11 45 -12 50 -64 12 -56 -41 -131 -18 -131 39 0 58 -28 62 -64 10 -36 -50 -136 -35 -136 20 0 45 -36 51 -53 8 -21 -55 -127 -38 -127 20 0 58 -39 67 -54 12 -8 -30 -20 -35 -63 -23 -54 16 -57 23 -32 86 9 24 4 35 -18 35 -16 0 -36 -18 -43 -40 -18 -56 -50 -30 -50 41 0 33 -9 59 -20 59 -11 0 -20 8 -20 18 0 10 18 14 40 8 22 -6 40 -20 40 -31 0 -11 19 -15 43 -8 29 7 54 -3 79 -33 32 -38 37 -39 37 -9 2 67 77 38 115 -45 l23 -50 2 52 c1 52 2 52 98 33 89 -18 96 -23 87 -70 -7 -35 -3 -47 13 -37 13 8 23 27 23 43 0 16 13 29 29 29 55 0 131 -39 131 -68 0 -47 42 -60 53 -16 13 50 147 17 162 -40 11 -41 28 -45 59 -14 32 32 105 -13 108 -68 2 -34 5 -36 12 -9 13 51 64 43 85 -13 25 -65 55 -80 78 -38 22 39 83 5 83 -46 0 -16 9 -28 20 -28 11 0 20 8 20 19 0 10 23 17 52 15 93 -7 110 59 32 124 -46 40 -69 80 -80 140 -16 97 -54 102 -54 7 0 -36 -5 -63 -10 -60 -6 3 -54 22 -107 43 -97 39 -97 39 -85 115 15 94 -35 109 -72 22 -13 -30 -26 -58 -27 -61 -20 -33 -108 52 -113 109 -7 83 -42 90 -56 11 -16 -91 -167 -46 -176 53 -8 74 -50 77 -61 4 -5 -39 -15 -44 -67 -33 -34 7 -73 12 -88 12 -19 0 -28 25 -28 80 0 94 -33 105 -63 20 -38 -109 -181 -75 -155 37 39 169 11 189 -61 43 -43 -88 -54 -98 -100 -87 -80 19 -89 39 -54 114 39 83 42 113 8 113 -28 0 -115 -119 -115 -156 0 -13 -22 -24 -48 -24 -59 0 -89 74 -78 190 l8 80 -40 -50 c-23 -28 -41 -80 -42 -117 0 -64 -2 -66 -65 -52 -130 28 -141 41 -126 161 8 64 6 108 -5 108 -23 0 -60 -89 -68 -163 l-6 -53 -75 30 c-56 23 -75 42 -75 76 0 79 -24 170 -42 158 -10 -5 -18 -41 -18 -79 0 -86 -16 -86 -92 -4 -112 121 -113 124 -80 203 29 69 -1 112 -37 54z m548 -666 c23 -24 41 -33 41 -20 0 28 72 33 89 6 6 -10 44 -18 83 -18 85 0 193 -87 155 -125 -34 -34 -124 16 -112 63 5 21 1 38 -10 38 -11 0 -25 -17 -30 -38 -8 -28 -23 -35 -64 -27 -34 6 -50 20 -43 37 6 15 2 32 -7 38 -10 6 -24 -8 -31 -30 -9 -28 -30 -40 -73 -40 -51 0 -58 6 -47 40 8 27 2 44 -19 52 -39 15 -41 68 -2 68 16 0 48 -20 70 -44z"/> <path d="M2055 4325 c-4 -8 49 -68 118 -133 l126 -118 -43 103 c-27 62 -50 93 -58 79 -18 -29 -78 14 -78 56 0 29 -52 39 -65 13z"/> <path d="M668 4169 c-17 -41 -24 -91 -16 -115 12 -39 17 -35 41 34 15 43 36 89 47 102 20 24 8 50 -24 50 -10 0 -31 -32 -48 -71z"/> <path d="M924 4156 c-29 -29 -32 -109 -4 -126 11 -7 20 0 20 16 0 16 19 52 41 81 46 58 -3 83 -57 29z"/> <path d="M33 3807 c-35 -36 -11 -67 42 -56 109 24 117 29 84 50 -34 22 -106 25 -126 6z"/> <path d="M550 3308 c-16 -40 -30 -88 -30 -105 -1 -89 -98 -327 -184 -448 -32 -45 -33 -55 -8 -55 23 0 246 -117 289 -151 4 -4 1 -24 -6 -47 -13 -39 -17 -38 -113 21 -55 34 -105 57 -111 51 -19 -19 56 -113 125 -155 81 -50 124 -117 90 -138 -16 -9 -11 -25 16 -49 38 -34 38 -32 28 122 -20 293 61 499 281 708 165 158 168 147 -88 245 -237 91 -251 91 -289 1z m239 -60 c111 -59 167 -100 155 -112 -30 -30 -344 141 -344 188 0 24 2 23 189 -76z m42 -137 c99 -80 11 -93 -126 -19 -126 68 -154 96 -137 139 13 35 143 -24 263 -120z m-162 -72 c73 -42 105 -71 98 -90 -16 -42 -48 -36 -153 31 -92 58 -108 79 -81 107 19 18 16 19 136 -48z m20 -198 c29 -46 -39 -40 -111 10 -91 64 -105 81 -88 109 12 19 174 -78 199 -119z m-136 -72 c82 -48 114 -110 70 -137 -23 -14 -194 95 -209 134 -26 69 25 70 139 3z"/> <path d="M100 3262 c0 -25 82 -62 136 -62 29 0 29 4 3 29 -39 39 -139 62 -139 33z"/> <path d="M1265 3190 c-532 -149 -727 -680 -423 -1153 69 -108 172 -203 200 -186 35 22 18 72 -42 122 -32 27 -93 119 -135 202 -290 588 217 1119 885 927 313 -89 314 -90 414 -351 58 -151 83 -99 35 73 -73 265 -583 465 -934 366z"/> <path d="M1286 3072 c-431 -141 -560 -632 -256 -968 l85 -93 50 99 c61 120 283 460 312 478 11 7 35 62 52 123 52 177 205 312 276 241 22 -22 34 -22 61 -2 114 83 -381 188 -580 122z m364 -71 c37 -15 36 -18 -16 -39 -81 -32 -123 -27 -177 17 l-47 40 100 -1 c55 0 118 -8 140 -17z m-231 -80 c52 -102 80 -310 39 -298 -42 13 -122 186 -133 288 -13 117 37 122 94 10z m-162 -1 c-24 -69 -70 -100 -149 -100 -65 0 -29 54 82 123 82 50 91 47 67 -23z m-11 -208 c35 -15 90 -55 123 -90 l58 -62 -69 0 c-71 0 -221 80 -275 147 -36 43 66 47 163 5z m-266 -80 c0 -38 -17 -88 -39 -115 -46 -54 -50 -31 -19 94 27 105 58 117 58 21z m325 -146 c60 -34 -137 -96 -241 -76 -81 15 -67 40 48 80 69 24 146 22 193 -4z m-250 -197 c47 -33 102 -179 76 -204 -17 -17 -118 95 -163 180 -35 66 10 78 87 24z"/> <path d="M2266 2848 c-20 -52 12 -424 42 -493 27 -61 29 -50 30 170 2 261 1 259 117 174 314 -231 477 -820 321 -1161 -43 -96 -47 -118 -26 -158 l25 -46 34 51 c163 249 167 471 16 825 -66 154 -132 314 -147 357 -59 165 -373 380 -412 281z"/> <path d="M2520 2519 c0 -11 27 -74 60 -139 111 -221 147 -479 101 -720 -19 -99 -4 -153 22 -82 30 82 41 369 19 501 -26 160 -202 542 -202 440z"/> <path d="M2435 2250 c-27 -113 -28 -142 -5 -196 l26 -64 25 55 c14 29 33 49 42 43 28 -17 19 -125 -11 -142 -23 -13 -15 -41 41 -146 l69 -130 -10 241 c-17 416 -113 601 -177 339z m88 -55 c5 -29 -10 -62 -41 -92 -28 -28 -43 -35 -36 -17 6 17 18 63 25 102 14 77 39 80 52 7z"/> <path d="M2993 1651 c-19 -59 -70 -162 -114 -227 -81 -123 -92 -153 -61 -173 54 -33 277 403 242 470 -29 53 -28 54 -67 -70z"/> <path d="M3084 1535 c-13 -36 -71 -128 -130 -206 l-106 -141 36 -59 c20 -32 36 -51 36 -41 0 10 17 3 38 -16 29 -27 42 -29 54 -9 8 14 5 28 -8 32 -33 11 -30 48 7 101 26 36 38 40 72 22 53 -28 66 -12 37 43 -32 59 11 151 54 116 18 -16 34 -17 48 -3 13 13 9 28 -11 45 -17 14 -31 38 -31 53 0 35 -43 128 -59 128 -7 0 -24 -29 -37 -65z"/> <path d="M3260 1299 c0 -13 -17 -16 -40 -9 -44 14 -53 -9 -18 -44 36 -36 -56 -156 -94 -124 -39 32 -56 10 -30 -38 25 -47 -57 -139 -101 -112 -14 9 -2 -24 27 -73 29 -49 69 -92 89 -95 105 -16 131 -30 168 -90 44 -72 50 -149 17 -221 -23 -51 27 -165 63 -142 25 15 63 -67 51 -107 -14 -42 6 -72 57 -92 32 -11 34 -18 12 -31 -23 -15 -22 -27 10 -74 l38 -57 14 95 c20 139 70 275 145 400 99 165 104 214 19 201 -43 -7 -67 -3 -67 11 0 13 17 23 38 23 63 0 100 21 89 51 -7 18 -29 24 -69 16 -35 -7 -58 -4 -58 9 0 12 28 24 62 28 l62 6 -44 55 c-87 111 -111 105 -103 -27 5 -97 1 -118 -25 -118 -40 0 -40 -17 -1 -61 37 -41 8 -139 -41 -139 -16 0 -30 -9 -30 -20 0 -11 8 -20 18 -20 39 0 36 -77 -5 -111 -27 -24 -33 -39 -17 -44 37 -13 28 -45 -11 -39 -91 14 -126 113 -40 115 40 0 42 3 12 25 -51 39 -26 134 35 134 55 0 60 17 19 71 -42 55 -38 124 9 164 46 39 52 65 14 65 -18 0 -23 22 -18 70 9 73 -102 239 -122 184 -20 -54 -84 19 -90 103 -5 70 -44 125 -44 62z m69 -250 c88 -89 58 -239 -49 -239 -75 0 -178 136 -152 201 24 63 151 87 201 38z"/> </g> </svg> 