<?xml version="1.0" standalone="no"?>
<!DOCTYPE svg PUBLIC "-//W3C//DTD SVG 20010904//EN"
 "http://www.w3.org/TR/2001/REC-SVG-20010904/DTD/svg10.dtd">
<svg version="1.0" xmlns="http://www.w3.org/2000/svg"
 width="300.000000pt" height="426.000000pt" viewBox="0 0 300.000000 426.000000"
 preserveAspectRatio="xMidYMid meet">
<metadata>
Created by potrace 1.10, written by Peter Selinger 2001-2011
</metadata>
<g transform="translate(0.000000,426.000000) scale(0.100000,-0.100000)"
fill="#000000" stroke="none">
<path d="M0 4176 l0 -85 43 24 c180 101 409 10 515 -204 l37 -75 0 -236 c0
-226 1 -237 23 -282 13 -27 41 -63 63 -81 27 -24 39 -42 39 -60 0 -15 5 -27
10 -27 6 0 10 9 10 21 l0 20 28 -21 c24 -20 40 -70 21 -70 -22 0 -37 13 -31
28 5 15 4 15 -11 3 -10 -8 -24 -10 -34 -6 -10 5 -24 7 -30 6 -7 -1 -22 3 -33
9 -14 8 -26 8 -41 0 -17 -9 -23 -8 -33 6 -12 16 -13 15 -19 -5 -5 -22 -31 -29
-42 -11 -3 6 -11 10 -17 10 -7 0 -7 -4 1 -14 19 -23 -13 -42 -46 -27 -32 15
-43 6 -17 -13 19 -15 19 -15 -1 -29 -10 -8 -26 -12 -34 -9 -10 4 -13 1 -8 -12
9 -22 -13 -56 -35 -56 -20 0 -22 8 -9 29 5 7 14 10 20 7 6 -4 11 -3 11 3 0 5
-5 11 -11 13 -17 6 2 38 23 38 17 0 18 3 9 14 -9 11 -9 19 1 36 10 17 19 20
43 15 23 -4 27 -3 17 7 -17 17 -15 25 10 31 14 4 29 0 40 -10 22 -19 36 -10
18 12 -11 13 -8 15 18 15 19 0 35 -7 41 -17 7 -13 10 -14 11 -4 0 10 10 12 44
8 32 -5 46 -3 49 7 4 10 -13 15 -68 20 -129 12 -205 -19 -286 -115 -45 -54
-45 -75 -3 -117 25 -26 22 -52 -7 -52 -23 0 -24 -9 -3 -25 21 -15 12 -65 -11
-65 -20 0 -19 -6 5 -30 26 -26 26 -57 0 -65 -28 -9 -25 -28 3 -21 19 4 26 0
36 -20 10 -22 8 -28 -11 -44 l-23 -19 38 -1 c48 0 72 -21 57 -49 -15 -29 -13
-32 14 -19 36 16 58 4 50 -27 -7 -28 1 -32 22 -10 21 21 44 19 44 -3 0 -29 10
-32 31 -11 10 10 28 19 39 19 16 0 20 -7 20 -31 l0 -31 24 29 c29 34 96 60 96
37 0 -25 17 -15 35 22 16 33 19 35 60 33 55 -4 64 4 32 26 -25 16 -25 17 -9
45 9 16 22 26 30 23 10 -4 11 1 6 21 -5 20 -2 26 10 26 9 0 16 5 16 10 0 6 -5
10 -10 10 -12 0 -1 52 13 61 5 4 5 9 -2 13 -15 10 -14 43 1 48 9 3 8 9 -5 22
-19 19 -22 36 -7 36 6 0 10 5 10 10 0 6 -7 10 -15 10 -20 0 -30 46 -15 65 14
17 0 21 -16 5 -7 -7 -16 -4 -29 10 -16 18 -17 24 -7 41 9 14 9 19 0 19 -6 0
-8 3 -5 6 4 4 13 1 22 -6 12 -10 13 -15 3 -28 -11 -13 -9 -15 15 -10 22 4 33
-1 54 -26 22 -27 24 -31 9 -34 -15 -3 -13 -7 8 -29 29 -28 36 -66 11 -57 -19
8 -19 -10 0 -26 21 -17 20 -51 -1 -43 -14 5 -15 3 -5 -15 15 -29 14 -52 -4
-52 -11 0 -13 -8 -8 -30 4 -24 2 -30 -12 -30 -14 0 -15 -3 -5 -15 6 -8 9 -23
5 -35 -5 -17 -10 -19 -21 -9 -19 16 -19 -9 1 -35 8 -11 15 -28 15 -37 0 -14
-6 -17 -33 -12 -24 4 -37 0 -47 -13 -14 -16 -13 -17 6 -12 11 3 28 0 38 -7 15
-12 15 -13 -3 -18 -20 -5 -49 -47 -32 -47 5 0 13 5 16 10 11 19 64 11 75 -10
9 -17 7 -24 -12 -41 l-23 -20 33 6 c27 6 39 2 58 -16 l24 -23 -22 -23 c-25
-27 -19 -29 22 -8 18 9 40 13 55 9 30 -7 30 -8 9 -39 -9 -14 -13 -32 -10 -41
8 -20 26 -9 26 16 0 33 56 52 90 30 12 -7 12 -12 2 -22 -6 -6 -12 -26 -12 -42
l1 -31 13 30 c18 41 41 58 69 51 20 -5 23 -10 19 -43 l-4 -38 21 33 c17 27 26
32 44 26 34 -10 40 -20 27 -43 -18 -34 -6 -49 14 -18 19 28 40 34 65 18 11 -7
12 -13 4 -23 -15 -19 -23 -57 -13 -63 5 -3 14 11 20 30 13 38 36 45 78 21 21
-11 22 -14 8 -25 -9 -8 -16 -23 -16 -35 1 -19 2 -19 21 7 12 15 30 27 43 27
20 0 23 -5 22 -32 -1 -38 16 -50 24 -16 3 13 11 23 18 22 7 -1 19 -2 27 -2 10
-1 15 -13 15 -34 l0 -32 20 22 c24 26 21 25 55 12 22 -9 24 -13 15 -31 -14
-25 -3 -41 11 -16 13 23 26 22 71 -10 27 -18 36 -29 28 -37 -15 -15 -12 -26 5
-19 9 3 25 -3 35 -12 18 -17 20 -17 20 -1 0 33 -53 121 -109 179 -103 109
-198 176 -346 248 -110 53 -133 68 -109 68 18 1 82 -25 163 -65 116 -57 144
-76 218 -147 47 -45 105 -108 130 -139 44 -58 73 -74 73 -40 0 50 22 93 55
109 43 20 56 11 27 -20 -30 -32 -71 -125 -84 -194 -7 -32 -13 -59 -14 -61 -1
-1 -25 12 -53 29 -45 28 -51 36 -51 65 0 25 -4 34 -16 34 -12 0 -15 -7 -12
-25 6 -29 0 -31 -46 -8 -31 14 -34 19 -29 46 5 22 3 29 -8 25 -7 -2 -16 -14
-19 -25 -4 -17 -9 -19 -27 -12 -22 8 -27 19 -24 47 3 20 -17 13 -24 -9 -5 -15
-12 -19 -28 -15 -12 3 -25 6 -29 6 -5 0 -8 11 -8 25 0 14 -4 25 -10 25 -5 0
-10 -9 -10 -20 0 -17 -4 -19 -27 -14 -40 10 -43 12 -43 39 0 34 -18 41 -26 10
-5 -21 -12 -25 -33 -23 -24 3 -26 6 -24 46 2 47 -8 48 -27 2 -10 -24 -18 -30
-42 -30 -27 0 -30 3 -23 23 23 76 10 94 -22 29 -12 -25 -24 -36 -36 -34 -20 4
-32 41 -22 71 4 12 2 21 -4 21 -14 0 -31 -33 -31 -60 0 -17 -4 -19 -27 -14
-41 10 -47 19 -44 66 2 40 1 42 -13 23 -9 -11 -16 -30 -16 -42 0 -26 0 -26
-34 -13 -22 8 -26 16 -26 50 0 22 -4 40 -10 40 -5 0 -10 -13 -10 -30 0 -38
-12 -38 -45 2 -21 25 -26 39 -22 65 6 36 5 38 -24 22 -16 -8 -25 -7 -40 7 -11
9 -17 24 -15 33 2 9 7 26 11 39 5 16 2 22 -10 22 -9 0 -18 -12 -21 -30 -7 -35
-5 -34 -39 -18 -20 9 -25 17 -20 32 4 12 9 32 12 46 5 24 4 24 -16 -5 -11 -16
-21 -36 -21 -42 0 -34 -65 2 -84 47 -3 8 -4 -2 -1 -22 l6 -38 -38 0 c-29 0
-42 6 -60 28 l-22 27 -1 -32 c0 -29 -3 -33 -29 -33 -23 0 -30 6 -38 33 l-10
32 -13 -27 c-7 -16 -19 -28 -27 -28 -16 0 -36 47 -29 66 11 28 -12 22 -24 -6
-11 -25 -15 -28 -32 -19 -20 11 -22 49 -3 92 6 14 4 16 -11 11 -11 -4 -26 -13
-35 -21 -15 -12 -18 -9 -33 28 -15 37 -15 44 -1 65 21 32 19 37 -10 30 -23 -6
-25 -3 -25 25 0 20 8 37 22 50 l23 18 -27 1 c-23 0 -28 5 -28 23 0 15 9 29 25
37 30 16 32 30 4 37 -30 8 -23 58 9 57 29 -1 28 14 -2 27 -21 10 -24 19 -28
93 -4 63 -11 93 -33 136 -27 54 -145 181 -213 228 l-32 23 1 -38 c1 -21 4 -49
8 -63 l7 -25 8 23 c10 29 17 28 50 -7 22 -23 26 -34 20 -57 -7 -28 -6 -29 13
-12 19 17 20 17 41 -5 18 -19 21 -30 16 -58 -7 -33 -7 -34 13 -16 19 17 20 16
31 -8 16 -35 15 -45 -5 -68 -17 -19 -17 -20 4 -15 24 6 33 -7 33 -53 0 -22 -5
-29 -20 -29 -11 0 -20 -4 -20 -10 0 -5 9 -10 20 -10 19 0 20 -4 14 -37 -4 -21
-12 -41 -18 -45 -8 -5 -7 -11 2 -20 18 -18 15 -65 -5 -77 -17 -9 -17 -10 0
-16 25 -10 22 -54 -5 -64 l-23 -8 23 -7 c12 -4 22 -11 22 -16 0 -5 3 -15 6
-24 5 -12 0 -16 -21 -16 -15 0 -24 -4 -20 -10 3 -5 17 -10 29 -10 16 0 26 -7
30 -22 10 -37 7 -45 -15 -51 -12 -3 -18 -10 -14 -16 3 -6 16 -8 29 -5 17 4 27
-1 40 -21 18 -27 14 -45 -10 -45 -8 0 -14 -4 -14 -10 0 -13 33 -13 46 0 7 7
18 2 34 -15 19 -20 21 -27 10 -40 -18 -21 -3 -33 17 -13 12 13 21 14 39 6 13
-6 24 -14 24 -18 0 -15 -69 -72 -80 -65 -8 5 -5 12 9 22 32 22 25 34 -17 27
-30 -5 -41 -2 -56 15 -17 19 -17 21 -3 21 10 0 17 6 17 14 0 11 -9 13 -33 9
-30 -4 -37 -1 -60 28 l-27 34 30 3 c42 5 37 19 -9 27 -32 5 -42 12 -50 37 -10
29 -10 30 13 24 26 -6 56 1 56 14 0 4 -16 8 -36 7 -38 -1 -54 13 -54 50 0 20
4 22 30 17 19 -4 30 -2 30 5 0 6 -8 11 -17 11 -32 0 -46 16 -39 43 4 19 11 24
26 20 11 -3 20 -1 20 5 0 5 -9 12 -20 15 -26 7 -26 44 -1 52 11 3 25 13 32 21
11 13 9 14 -14 9 -26 -7 -27 -5 -27 29 0 24 5 36 14 36 7 0 19 7 26 15 11 13
8 15 -14 15 -23 0 -26 4 -26 34 0 28 4 35 25 40 36 9 32 29 -4 21 -25 -5 -29
-3 -33 19 -3 17 1 31 13 42 22 20 14 41 -8 22 -12 -10 -18 -8 -33 12 -13 17
-16 29 -9 42 16 29 11 43 -10 24 -17 -15 -19 -15 -32 0 -7 9 -12 34 -11 57 l3
42 -19 -24 c-11 -13 -24 -21 -31 -17 -24 15 -9 -12 34 -63 87 -102 85 -88 74
-496 -5 -181 6 -210 127 -323 46 -44 86 -91 90 -106 4 -16 -4 -62 -21 -123
-51 -177 -34 -289 57 -389 89 -97 212 -140 373 -131 112 6 192 35 253 90 49
46 65 75 112 194 50 130 93 148 209 87 27 -13 84 -31 127 -40 158 -29 190 -37
240 -56 72 -26 250 -146 302 -202 99 -107 146 -278 107 -384 -56 -150 -305
-381 -461 -428 -43 -13 -55 -12 -153 12 -234 58 -342 7 -478 -224 -30 -51 -65
-100 -78 -108 -16 -10 -65 -19 -136 -25 -171 -14 -239 -38 -299 -105 -65 -74
-107 -213 -95 -307 9 -61 33 -127 47 -127 9 0 8 6 -8 46 -6 14 99 44 155 44
23 0 55 -7 71 -15 27 -14 30 -14 30 0 0 18 -35 41 -76 49 -42 9 -171 -21 -184
-42 -8 -15 -9 -14 -10 5 0 12 -3 28 -6 36 -4 11 8 20 41 32 53 21 155 16 204
-10 37 -18 41 -19 41 -1 0 8 -28 22 -69 36 -72 23 -80 22 -198 -15 -20 -6 -23
-4 -23 18 0 30 18 42 76 51 48 8 179 -17 204 -39 22 -20 30 -19 30 4 0 26 -79
58 -161 66 -52 5 -71 3 -102 -13 -38 -20 -45 -15 -27 18 25 46 187 31 303 -28
4 -2 7 4 7 13 0 10 -22 26 -57 43 -49 22 -72 26 -146 27 -71 0 -87 3 -85 15 9
44 194 30 265 -20 46 -32 58 -27 20 8 -35 33 -114 64 -179 69 -76 7 -72 28 5
27 44 -1 76 -10 143 -43 47 -22 88 -41 92 -41 10 0 -33 42 -78 75 -25 18 -64
39 -87 46 -24 6 -43 16 -43 20 0 10 83 29 180 39 l85 9 28 -31 29 -30 23 22
c25 24 23 50 -3 50 -13 0 -11 4 5 15 13 9 39 45 59 81 28 51 39 62 48 52 6 -7
26 -27 45 -43 24 -22 31 -24 23 -10 -14 26 -47 62 -64 67 -11 4 -10 8 1 22 13
15 16 14 50 -11 20 -15 42 -34 49 -43 7 -8 5 2 -5 22 -9 22 -29 43 -44 50 -22
10 -26 16 -18 30 10 18 11 18 40 -3 17 -12 40 -41 52 -65 11 -24 24 -44 28
-44 34 0 -12 98 -56 120 -16 8 -32 16 -34 18 -3 1 2 10 11 18 15 15 19 14 51
-10 20 -15 44 -47 54 -72 20 -48 33 -57 33 -21 -1 37 -35 101 -63 116 -28 15
-33 26 -18 35 4 3 27 -11 50 -30 30 -26 44 -48 52 -80 6 -24 14 -44 18 -44 48
1 36 89 -21 142 -22 22 -33 38 -24 38 8 0 21 3 29 6 10 4 24 -13 46 -57 17
-34 31 -70 31 -81 0 -10 5 -18 10 -18 23 0 -4 80 -46 138 -16 22 -16 22 27 22
30 0 39 -3 30 -9 -12 -7 -10 -14 8 -36 12 -16 21 -42 21 -61 0 -39 -3 -38 43
-19 20 8 35 21 33 28 -3 6 -7 24 -10 40 -9 41 -25 33 -23 -13 3 -57 -13 -53
-33 7 -11 35 -13 53 -6 53 6 0 43 -9 81 -20 90 -26 119 -25 183 5 28 13 52 22
52 20 0 -8 -134 -77 -245 -125 -292 -127 -443 -218 -547 -329 -107 -113 -188
-267 -204 -390 -6 -47 -5 -51 14 -51 17 0 22 8 28 47 9 66 40 146 86 226 40
69 137 181 190 218 l28 21 20 -24 c11 -12 19 -18 20 -11 0 6 -4 15 -10 18 -17
10 -11 34 10 45 17 9 24 7 41 -12 20 -22 21 -17 4 25 -4 8 5 18 20 25 15 7 25
8 25 2 0 -6 7 -10 16 -10 11 0 13 6 9 19 -9 28 32 39 50 14 13 -17 14 -16 15
9 0 38 36 57 56 31 14 -17 15 -17 9 3 -4 15 1 24 20 32 33 15 35 15 35 -2 0
-8 5 -18 11 -22 8 -5 10 1 7 19 -4 19 0 28 18 36 19 8 25 7 33 -7 9 -15 10
-15 11 4 0 23 45 50 55 34 10 -16 28 -11 21 5 -9 25 35 37 58 16 17 -15 18
-15 15 8 -6 36 24 50 52 26 l22 -20 -7 28 c-8 33 11 45 44 27 19 -10 20 -9 15
12 -5 18 0 27 25 41 27 16 31 16 36 3 3 -9 10 -16 15 -16 6 0 5 8 -1 20 -9 16
-6 22 17 37 19 13 28 14 31 5 2 -6 8 -12 13 -12 4 0 6 7 2 15 -3 9 3 25 13 36
17 19 19 19 31 3 12 -16 13 -16 13 6 0 13 7 32 16 42 16 17 18 17 30 0 16 -22
29 -10 15 16 -8 16 -5 24 16 43 18 17 27 20 30 12 8 -22 25 -14 18 7 -8 26 12
52 35 45 15 -5 18 0 17 27 -2 30 1 33 23 30 21 -3 22 -2 11 12 -17 20 -6 70
13 63 22 -9 27 4 11 25 -15 23 -10 48 11 48 8 0 14 5 14 10 0 6 -7 10 -15 10
-22 0 -20 57 3 63 13 4 13 5 -4 6 -30 1 -40 51 -13 58 27 8 23 23 -6 23 -26 0
-50 32 -41 56 3 8 -1 14 -8 14 -7 0 -19 7 -26 15 -10 12 -10 18 0 30 11 13 9
15 -13 15 -25 0 -44 25 -27 35 20 12 10 27 -14 21 -31 -8 -50 15 -44 54 5 31
-8 42 -18 15 -15 -38 -57 5 -49 49 l6 31 -21 -24 c-19 -22 -21 -23 -46 -6 -25
16 -25 17 -8 36 22 24 10 38 -14 16 -10 -10 -24 -17 -30 -17 -18 0 -25 20 -12
35 14 17 -1 20 -17 4 -16 -16 -32 -2 -26 24 4 21 4 21 -10 4 -13 -15 -19 -17
-37 -7 -17 9 -19 14 -9 26 13 16 -2 19 -18 3 -14 -14 -53 -2 -53 17 0 17 -12
18 -27 3 -15 -15 -56 -1 -49 17 3 8 -1 14 -9 14 -8 0 -15 -4 -15 -10 0 -5 -11
-10 -25 -10 -16 0 -25 6 -25 15 0 17 -16 20 -25 5 -12 -19 -45 -11 -45 10 0
11 -4 20 -10 20 -5 0 -10 -7 -10 -15 0 -16 -9 -19 -33 -9 -9 3 -13 13 -10 25
3 10 0 19 -6 19 -6 0 -11 -7 -11 -16 0 -9 -6 -14 -12 -11 -7 2 -12 14 -10 25
2 12 -2 22 -7 22 -6 0 -11 -7 -11 -15 0 -11 -6 -12 -22 -6 -15 6 -22 16 -20
27 2 18 2 18 -11 2 -18 -23 -47 -23 -47 0 -1 16 -1 16 -14 0 -18 -24 -46 -23
-46 2 0 11 -4 20 -10 20 -5 0 -10 6 -10 14 0 9 7 12 20 9 11 -3 20 -9 20 -14
0 -5 11 -7 24 -3 13 3 27 1 30 -5 4 -5 13 -8 21 -5 7 3 24 0 37 -7 13 -7 33
-12 46 -10 12 1 22 -3 22 -9 0 -6 5 -8 11 -5 5 4 19 -1 30 -11 17 -15 19 -15
19 -1 0 22 25 12 38 -16 9 -18 11 -19 11 -4 1 30 71 19 71 -12 1 -15 1 -15 10
0 13 22 57 13 64 -14 4 -17 7 -18 20 -8 20 17 66 6 66 -15 0 -13 3 -14 14 -5
17 14 46 4 47 -18 0 -10 2 -11 6 -3 8 20 23 14 33 -14 8 -21 13 -24 25 -14 17
14 35 5 35 -18 0 -13 2 -14 9 -4 13 21 64 -6 57 -30 -3 -15 0 -18 14 -13 29 9
62 -12 55 -36 -4 -10 -2 -19 3 -19 6 0 12 5 14 10 2 6 12 4 25 -5 18 -12 21
-22 17 -53 -4 -30 -3 -34 6 -19 6 9 17 17 24 17 17 0 40 -45 33 -64 -5 -12 0
-15 16 -13 19 2 22 -2 19 -30 -2 -19 1 -33 7 -33 6 0 11 5 11 11 0 5 5 7 11 4
6 -4 7 -19 4 -36 -8 -37 3 -56 19 -33 11 15 15 12 34 -27 l22 -44 -23 -18 -22
-18 23 6 c19 6 22 3 22 -24 0 -21 -5 -31 -15 -31 -8 0 -15 -4 -15 -10 0 -5 7
-10 15 -10 22 0 19 -37 -5 -57 -13 -11 -16 -19 -8 -24 15 -10 1 -59 -17 -59
-17 0 -20 -17 -4 -22 7 -2 7 -12 -2 -31 -8 -18 -18 -26 -27 -22 -10 4 -12 0
-8 -11 4 -9 -1 -28 -9 -41 -14 -20 -19 -22 -31 -12 -13 11 -14 9 -9 -12 7 -30
-16 -55 -41 -45 -13 5 -15 2 -11 -14 7 -29 -39 -65 -61 -48 -13 11 -15 10 -10
-10 7 -24 -23 -49 -52 -43 -8 2 -12 -1 -7 -5 7 -8 -20 -44 -34 -44 -4 0 -20
-12 -34 -26 -14 -14 -31 -24 -38 -21 -6 2 -17 -6 -23 -17 -8 -16 -18 -20 -44
-18 -27 2 -31 0 -21 -11 16 -20 -11 -41 -45 -34 -18 3 -24 1 -20 -9 6 -17 -30
-39 -39 -24 -3 5 -13 10 -22 10 -12 0 -13 -3 -4 -14 9 -11 6 -16 -19 -24 -18
-7 -30 -7 -30 -1 0 5 -4 9 -10 9 -5 0 -10 -6 -10 -14 0 -18 -33 -30 -60 -21
-14 4 -18 2 -15 -7 6 -16 -52 -41 -61 -27 -3 5 -10 7 -15 3 -5 -3 -7 -9 -4
-14 7 -11 -26 -29 -42 -23 -7 3 -13 -2 -13 -10 0 -15 -34 -33 -55 -29 -6 1
-15 -8 -20 -21 -6 -12 -19 -22 -30 -22 -11 -1 -19 -7 -17 -14 5 -22 -19 -42
-42 -35 -18 6 -19 5 -8 -8 10 -13 8 -24 -17 -64 -32 -51 -61 -147 -61 -199 0
-16 7 -69 16 -117 l16 -88 112 1 111 1 -65 20 c-36 12 -66 22 -68 23 -1 1 3
14 9 29 9 18 22 27 48 32 51 8 61 12 61 24 0 5 -13 10 -28 10 -41 0 -44 8 -19
53 23 40 50 57 93 57 31 0 31 16 -1 27 l-25 8 30 37 c19 23 41 38 58 40 19 2
26 8 24 20 -1 9 6 22 17 28 16 8 22 7 30 -8 8 -15 4 -25 -22 -50 -18 -18 -43
-32 -55 -32 -19 0 -21 -3 -10 -19 9 -14 9 -26 -1 -49 -11 -26 -19 -30 -63 -35
-75 -9 -79 -22 -15 -41 52 -15 55 -18 59 -51 4 -38 8 -36 -94 -61 -39 -9 -24
-24 23 -24 22 0 63 -10 90 -21 27 -12 52 -20 54 -17 2 2 -8 22 -23 44 -23 33
-27 49 -27 109 0 58 5 79 29 123 27 48 95 111 153 141 46 24 35 10 -17 -22
-94 -55 -147 -157 -138 -266 4 -48 10 -59 47 -93 l42 -39 148 3 c148 3 149 3
193 34 53 38 98 120 98 178 0 124 -65 197 -202 228 -50 11 -51 12 -23 19 109
25 178 -10 224 -113 l27 -62 20 29 c36 55 112 121 152 133 22 7 67 12 101 12
33 0 61 2 61 5 0 4 -7 19 -15 34 -8 16 -19 59 -25 95 -25 160 50 325 173 378
57 25 60 35 8 30 -45 -5 -109 25 -140 64 -19 24 -21 25 -21 7 0 -11 3 -34 6
-51 5 -25 12 -32 38 -35 l31 -4 -32 -1 c-18 -1 -33 -6 -33 -12 0 -5 -8 -10
-17 -10 -13 0 -14 -3 -5 -12 16 -16 15 -58 -2 -58 -8 0 -13 -12 -14 -32 -2
-61 -3 -68 -15 -65 -28 5 -37 47 -11 47 13 0 14 3 4 15 -15 18 -6 45 15 45 17
0 21 25 5 35 -15 9 -12 36 7 57 11 13 14 22 6 26 -6 4 -8 29 -6 62 l5 56 32
-32 c31 -31 114 -64 161 -64 90 0 187 71 201 147 9 49 -7 146 -35 203 -20 40
-84 100 -125 116 -27 10 -97 -17 -137 -53 -47 -43 -74 -92 -91 -165 l-12 -53
-7 125 c-8 137 -33 231 -87 318 l-29 47 66 2 c36 0 79 6 95 12 16 6 31 9 33 7
5 -5 -39 -18 -108 -33 l-36 -8 53 -125 c29 -69 57 -125 62 -125 6 0 34 33 62
72 28 40 74 92 103 115 54 43 201 117 275 139 23 7 42 16 42 20 0 13 -153 162
-203 197 -48 34 -50 34 -60 -13 -3 -11 -5 13 -6 53 0 39 2 72 5 72 3 0 39 -23
80 -52 80 -55 155 -131 210 -212 l34 -50 -26 -41 c-74 -120 -144 -294 -144
-362 0 -13 11 -51 25 -85 31 -76 32 -136 4 -171 -11 -15 -71 -60 -132 -101
-130 -86 -217 -172 -254 -252 -37 -81 -30 -175 20 -277 66 -132 264 -375 377
-462 52 -40 64 -45 111 -45 l53 0 -41 43 c-133 136 -196 405 -145 617 22 92
62 187 134 316 133 240 174 520 102 701 -66 167 -102 223 -208 328 -101 99
-166 145 -314 219 -77 39 -213 139 -274 203 -42 44 -84 128 -97 197 -5 26 -6
105 -3 176 5 130 -6 222 -33 285 -7 17 -20 51 -29 76 -9 26 -26 55 -37 65 -18
16 -17 12 5 -37 36 -79 45 -157 39 -345 -4 -136 -2 -183 11 -238 23 -96 77
-194 153 -276 57 -61 62 -70 41 -70 -32 1 -89 74 -143 185 -69 140 -77 182
-80 400 -2 205 -15 282 -62 383 -26 55 -47 75 -193 184 -46 35 -94 78 -106 96
-15 21 -30 74 -44 155 -40 222 -75 311 -157 392 -106 104 -390 195 -608 194
l-110 0 82 -39 c138 -65 271 -148 342 -215 70 -67 161 -185 141 -185 -13 0
-42 31 -109 115 -79 100 -200 182 -399 273 -62 29 -124 52 -138 52 -15 0 -35
-11 -49 -27 -17 -20 -24 -23 -25 -13 0 9 5 21 12 28 9 9 6 12 -13 12 -14 0
-30 -5 -37 -12 -9 -9 -15 -9 -24 0 -8 8 -46 12 -107 12 l-96 -1 55 -23 c154
-64 259 -134 345 -228 99 -110 165 -285 135 -357 -7 -18 -16 -28 -20 -24 -4 4
-19 60 -34 123 -15 63 -37 137 -48 163 -44 102 -207 217 -442 311 -82 33 -99
36 -188 36 l-98 0 0 -84z m630 35 c-10 -20 -30 -29 -30 -13 0 4 8 18 17 32 19
27 30 12 13 -19z m53 -21 c-18 -31 -28 -36 -37 -22 -8 13 23 52 40 52 13 0 12
-5 -3 -30z m291 -1 c17 -15 -3 -23 -29 -11 -32 15 -34 36 -2 27 12 -4 26 -11
31 -16z m-234 2 c0 -4 -10 -20 -21 -35 -28 -36 -50 -19 -25 18 16 25 46 36 46
17z m324 -12 c31 -15 39 -34 21 -49 -17 -14 -51 -8 -80 15 -20 15 -20 15 -1
30 24 18 28 18 60 4z m-269 -9 c6 -10 -44 -80 -57 -80 -15 0 -8 38 13 64 22
28 34 32 44 16z m431 -52 c5 -16 0 -27 -20 -45 -32 -27 -66 -29 -96 -5 -29 24
-17 50 34 72 46 20 70 13 82 -22z m-368 19 c22 -13 22 -13 -13 -30 -19 -9 -41
-28 -47 -42 -6 -14 -15 -25 -19 -25 -15 0 -16 26 -1 55 29 59 39 64 80 42z
m71 -36 c12 -7 5 -14 -27 -26 -23 -10 -52 -30 -63 -46 -20 -29 -39 -38 -39
-19 0 16 85 100 101 100 8 0 21 -4 28 -9z m409 -49 c17 -22 15 -29 -14 -59
-22 -22 -32 -25 -70 -20 -85 9 -91 42 -15 82 48 25 77 24 99 -3z m-793 -3 c12
-19 -5 -23 -22 -6 -16 16 -16 17 -1 17 9 0 20 -5 23 -11z m459 2 c3 -5 -14
-16 -38 -25 -24 -9 -61 -32 -84 -51 -46 -40 -52 -42 -52 -17 0 22 49 71 88 88
32 15 79 17 86 5z m-399 -51 c24 -27 8 -47 -24 -31 -21 12 -27 31 -14 44 10
11 19 8 38 -13z m477 -14 c16 -11 8 -14 -54 -19 -56 -5 -82 -13 -121 -37 -27
-17 -52 -28 -55 -25 -3 3 10 22 30 42 33 32 44 37 105 43 37 4 70 8 73 8 3 1
13 -5 22 -12z m338 -16 c52 -28 43 -87 -17 -115 -41 -20 -92 -14 -117 14 -27
30 -16 62 29 88 44 25 76 29 105 13z m-756 -36 c31 -31 13 -64 -24 -44 -19 10
-27 40 -13 53 10 11 20 8 37 -9z m427 6 c14 0 34 -6 45 -14 17 -13 10 -15 -67
-13 -85 2 -88 1 -140 -35 -29 -20 -55 -35 -57 -33 -2 2 5 17 17 33 30 42 97
74 141 68 19 -3 47 -6 61 -6z m48 -56 c68 -20 60 -28 -15 -15 -80 15 -123 1
-185 -58 -50 -49 -77 -52 -40 -5 41 52 110 93 157 94 17 0 54 -7 83 -16z
m-449 -51 c29 -37 10 -55 -25 -23 -14 13 -25 29 -25 37 0 22 27 15 50 -14z
m824 -26 c29 -46 -56 -121 -112 -98 -15 6 -34 24 -44 40 -15 28 -15 30 7 51
13 12 40 28 62 35 41 15 65 7 87 -28z m-291 -17 c67 -25 78 -37 128 -141 50
-102 79 -183 79 -220 0 -35 -74 -173 -107 -199 -39 -31 -98 -43 -208 -44 -85
0 -106 3 -143 22 -55 29 -73 60 -112 194 -39 133 -36 170 19 255 107 162 185
192 344 133z m-506 -28 c7 -4 16 -22 19 -40 6 -30 5 -32 -23 -32 -50 0 -93 47
-66 73 9 9 55 8 70 -1z m822 -100 c13 -24 -12 -80 -41 -91 -34 -12 -53 -3 -71
34 -16 33 -16 35 10 55 32 25 89 27 102 2z m-792 -24 c21 -27 21 -47 2 -72
-35 -44 -119 -27 -119 25 0 51 8 59 60 59 26 0 52 -6 57 -12z m823 -98 c38
-38 14 -100 -40 -100 -36 0 -58 20 -62 55 -3 26 2 33 32 47 44 22 46 22 70 -2z
m-799 -40 c24 -13 26 -71 4 -94 -24 -24 -84 -31 -114 -15 -38 21 -40 70 -5 98
29 23 83 28 115 11z m899 -100 c58 -30 51 -60 -25 -105 -56 -32 -79 -27 -105
25 -27 52 -25 67 8 84 38 21 76 20 122 -4z m-125 -180 c25 -73 45 -134 45
-136 0 -13 -22 0 -36 21 -18 28 -76 186 -70 192 2 2 20 -38 40 -89 20 -51 34
-79 31 -63 -4 17 -24 75 -46 131 -21 55 -39 107 -39 115 1 26 29 -37 75 -171z
m-722 128 c30 -23 25 -59 -12 -85 -45 -30 -63 -29 -106 8 -29 26 -33 34 -24
50 19 36 107 53 142 27z m660 -137 c20 -52 35 -96 33 -98 -1 -2 -16 2 -33 7
-27 10 -31 17 -47 89 -15 72 -13 124 4 104 4 -4 23 -51 43 -102z m330 75 c28
-22 21 -60 -18 -94 -39 -35 -90 -52 -152 -52 -37 0 -42 3 -52 32 -10 28 -8 35
11 56 52 56 170 89 211 58z m-399 -90 c20 -67 20 -65 -3 -59 -12 3 -21 17 -26
39 -5 31 0 74 10 74 2 0 11 -24 19 -54z m-548 36 c18 -12 23 -39 10 -58 -13
-16 -15 -16 -50 5 -40 25 -44 35 -18 50 20 12 43 14 58 3z m504 -62 c0 -16 -4
-30 -9 -30 -10 0 -22 40 -15 52 11 18 24 6 24 -22z m-37 -10 c6 -23 -10 -37
-25 -22 -12 12 -4 42 11 42 5 0 11 -9 14 -20z m-360 2 c25 -10 124 -302 103
-302 -3 0 -67 146 -123 278 -14 33 -11 36 20 24z m315 -19 c-5 -26 -38 -29
-38 -4 0 15 6 21 21 21 14 0 19 -5 17 -17z m-201 -60 c11 -42 10 -57 0 -82
l-13 -31 -21 68 c-38 120 -37 111 -6 103 22 -6 29 -16 40 -58z m151 45 c-2
-13 -10 -23 -18 -23 -8 0 -16 10 -18 23 -3 17 2 22 18 22 16 0 21 -5 18 -22z
m678 -3 c15 -24 15 -28 -1 -71 -24 -64 -52 -79 -148 -79 -71 0 -81 2 -98 24
-26 32 -21 69 12 94 38 28 127 56 176 57 35 0 46 -5 59 -25z m-783 -22 c7 -40
-10 -76 -23 -51 -4 7 -10 30 -14 51 -6 32 -4 37 12 37 15 0 21 -9 25 -37z m57
13 c0 -13 -6 -29 -14 -35 -11 -9 -15 -7 -20 11 -10 38 -7 48 14 48 14 0 20 -7
20 -24z m-360 -22 c0 -14 -4 -23 -10 -19 -5 3 -10 15 -10 26 0 10 5 19 10 19
6 0 10 -12 10 -26z m680 -8 c35 -14 71 -33 81 -41 9 -9 38 -68 64 -131 53
-130 54 -152 7 -238 -30 -55 -58 -78 -156 -130 -69 -36 -114 -44 -158 -27 -70
26 -205 197 -242 304 -20 59 -21 139 -1 176 16 32 81 73 159 103 67 25 160 19
246 -16z m-815 -6 c0 -19 -85 -26 -115 -10 -35 19 -11 31 53 28 47 -2 62 -7
62 -18z m104 -36 c35 -23 57 -51 48 -60 -7 -7 -81 43 -95 64 -20 30 -2 29 47
-4z m-289 -1 c0 -46 -13 -62 -58 -77 -25 -9 -48 -16 -50 -16 -10 0 32 57 61
83 36 31 47 34 47 10z m145 -47 c11 -25 12 -47 6 -81 -7 -40 -6 -47 10 -56 28
-15 24 -57 -6 -71 -19 -8 -28 -8 -40 2 -20 17 -19 57 2 69 15 8 15 13 5 36
-17 38 -14 135 5 135 2 0 10 -15 18 -34z m1382 -113 c-2 -21 -4 -4 -4 37 0 41
2 58 4 38 2 -21 2 -55 0 -75z m-1257 79 c0 -23 -45 -89 -70 -102 -38 -20 -37
23 2 88 22 36 68 46 68 14z m-214 -23 c18 -11 39 -30 48 -44 15 -23 15 -25 -2
-34 -15 -8 -29 -1 -70 35 -79 69 -64 96 24 43z m1378 -5 c42 -16 -2 -92 -69
-120 -57 -24 -102 -18 -137 16 -28 28 -29 32 -16 53 26 40 167 72 222 51z
m-1044 -83 c0 -10 -3 -33 -6 -50 -5 -25 -9 -29 -20 -20 -17 14 -18 61 -2 77
17 17 28 15 28 -7z m-500 -10 c12 -24 13 -101 1 -119 -12 -19 -31 39 -31 94 0
47 12 57 30 25z m416 -6 c19 -15 19 -15 -1 -28 -49 -30 -115 -29 -115 3 0 34
82 51 116 25z m244 -41 c0 -18 -30 -25 -36 -9 -4 8 -3 27 1 43 l7 27 13 -25
c8 -14 14 -30 15 -36z m967 -36 c-2 -18 -4 -6 -4 27 0 33 2 48 4 33 2 -15 2
-42 0 -60z m-1427 48 c0 -15 -78 -46 -117 -46 -24 0 -28 7 -15 27 19 30 132
46 132 19z m1334 -22 c17 -6 21 -40 8 -61 -11 -17 -58 -33 -97 -33 -26 0 -39
6 -51 26 -16 23 -16 27 -1 41 22 22 110 39 141 27z m-1202 -31 c27 -29 48 -65
48 -81 0 -21 -43 2 -61 32 -17 29 -19 29 -19 8 0 -27 -27 -82 -40 -82 -18 0
-31 40 -24 78 l7 37 -28 -33 c-15 -18 -40 -39 -56 -48 -29 -14 -29 -14 -29 15
0 44 69 100 100 81 8 -5 21 -5 31 1 13 7 21 5 29 -8 9 -16 10 -15 5 5 -8 30 6
28 37 -5z m1087 -120 c80 -117 170 -215 277 -300 l85 -67 -28 -15 c-15 -8 -29
-15 -29 -15 -1 -1 -48 49 -104 109 -158 169 -300 362 -300 409 0 23 7 14 99
-121z m-728 96 c16 -11 29 -27 29 -34 0 -34 -104 -71 -121 -44 -11 18 -11 42
1 73 12 33 50 35 91 5z m-231 -26 c0 -5 -9 -19 -19 -32 l-19 -24 -6 21 c-4 12
-4 26 -1 32 7 12 45 14 45 3z m855 -23 c3 -5 4 -10 1 -10 -2 0 -12 -3 -20 -6
-12 -5 -15 -2 -10 10 7 18 20 21 29 6z m246 -16 c31 -38 -39 -79 -84 -49 -34
22 -34 41 1 53 40 15 68 14 83 -4z m-1421 -56 l24 -31 -28 7 c-15 4 -40 14
-54 24 l-25 16 24 7 c13 4 26 7 29 7 3 1 16 -13 30 -30z m1195 22 c-3 -5 -12
-10 -19 -10 -24 0 -97 -73 -122 -121 -25 -50 -44 -63 -44 -31 0 30 56 109 101
142 39 28 98 42 84 20z m-549 -26 c21 -81 -24 -167 -95 -180 -30 -6 -38 -3
-63 25 -32 36 -36 76 -12 122 18 36 63 58 121 59 38 0 43 -3 49 -26z m-458 4
c7 -7 12 -15 12 -20 0 -8 -66 -28 -95 -28 -17 1 -14 5 15 30 39 33 50 36 68
18z m1047 -18 c3 -5 -1 -10 -10 -10 -34 0 -75 -36 -105 -92 -35 -64 -50 -79
-50 -48 0 52 63 134 116 150 39 11 42 11 49 0z m206 -26 l24 -26 -24 -19 -24
-19 -24 35 c-38 56 0 80 48 29z m182 -163 c53 -69 127 -128 248 -197 108 -61
109 -62 109 -168 0 -86 -24 -140 -86 -195 -56 -49 -95 -68 -161 -77 -88 -11
-116 0 -193 76 -66 64 -70 71 -69 112 1 23 4 54 8 68 6 19 9 10 12 -38 5 -56
9 -66 44 -102 57 -59 113 -82 191 -82 80 1 117 20 161 86 48 71 59 116 45 184
-22 106 -98 167 -207 166 -67 -1 -111 -19 -164 -68 -33 -30 -34 -30 -13 -3 40
54 102 87 163 87 16 0 29 2 29 4 0 3 -35 40 -78 83 -51 52 -90 102 -115 149
-47 91 -48 106 -1 28 19 -32 54 -83 77 -113z m-603 144 c0 -13 -35 -75 -43
-75 -11 0 0 49 15 67 10 13 28 18 28 8z m255 -5 c3 -5 -3 -10 -14 -10 -26 0
-96 -62 -119 -104 -12 -23 -17 -27 -20 -14 -5 24 33 92 64 117 28 22 78 28 89
11z m-521 -26 c19 -18 21 -72 5 -108 -7 -13 -25 -30 -41 -37 -70 -29 -92 75
-31 143 20 22 47 23 67 2z m556 -19 c11 -13 8 -15 -13 -15 -34 0 -83 -43 -98
-85 -10 -27 -16 -32 -26 -23 -22 18 -15 42 25 80 61 58 90 69 112 43z m169
-19 c19 -23 -4 -28 -24 -6 -15 17 -16 20 -3 20 9 0 21 -6 27 -14z m-141 -18
c8 -8 3 -15 -21 -27 -23 -12 -38 -30 -53 -69 -18 -44 -23 -50 -33 -38 -23 28
12 114 53 132 39 16 39 17 54 2z m-468 -26 c25 -20 30 -63 10 -87 -23 -28
-100 -12 -100 21 0 8 7 30 14 49 17 40 41 45 76 17z m660 -36 c0 -6 -7 -2 -15
8 -8 11 -15 25 -15 30 0 6 7 2 15 -8 8 -11 15 -25 15 -30z m-144 13 c4 -7 -1
-16 -12 -22 -33 -19 -63 -59 -70 -93 -10 -53 -27 -29 -21 29 8 66 29 97 67 97
16 0 32 -5 36 -11z m-405 -19 c22 -12 49 -60 49 -88 0 -33 -25 -46 -60 -32
-37 16 -60 46 -60 80 0 44 30 61 71 40z m-771 -30 c0 -11 5 -20 10 -20 6 0 10
9 10 20 0 24 9 25 55 3 23 -11 35 -24 35 -37 0 -15 3 -17 12 -8 15 15 48 -12
48 -40 0 -10 6 -18 13 -18 15 0 76 -60 61 -61 -5 0 7 -6 26 -12 24 -9 34 -18
32 -30 -3 -18 13 -24 22 -8 10 15 40 2 52 -23 14 -30 7 -45 -17 -39 -12 3 -18
11 -15 19 6 16 -5 19 -19 5 -6 -5 -34 -11 -62 -14 -42 -5 -53 -3 -53 8 0 8 11
17 25 21 35 9 31 26 -5 22 -39 -4 -56 19 -33 44 15 17 15 18 -6 18 -33 0 -72
33 -60 51 13 20 11 29 -5 29 -8 0 -17 -7 -20 -15 -5 -13 -10 -14 -27 -5 -17 9
-20 18 -15 41 7 36 -10 38 -26 4 -9 -20 -19 -25 -46 -25 -31 0 -34 2 -29 25 3
16 0 24 -7 22 -6 -2 -12 -13 -14 -25 -5 -30 -52 -31 -52 -2 0 11 -5 20 -11 20
-6 0 -13 -9 -16 -20 -4 -13 -14 -20 -30 -20 -16 0 -27 7 -30 20 -8 32 -26 24
-20 -9 5 -24 2 -30 -16 -35 -14 -3 -29 2 -44 16 -27 25 -31 14 -6 -14 16 -18
16 -20 -5 -40 -17 -18 -23 -19 -36 -8 -10 7 -16 8 -16 2 0 -6 5 -14 10 -17 18
-11 11 -35 -10 -35 -21 0 -27 -15 -10 -25 14 -9 12 -42 -2 -49 -10 -5 -10 -7
0 -12 6 -3 12 -16 12 -29 0 -13 -6 -25 -12 -28 -9 -3 -6 -11 10 -26 31 -30 29
-61 -3 -61 -16 0 -25 -6 -25 -16 0 -13 7 -15 35 -11 29 5 37 2 46 -15 9 -17 7
-24 -17 -43 -34 -27 -15 -45 23 -20 23 15 27 16 41 1 14 -14 14 -17 -3 -36
-10 -11 -15 -23 -11 -27 4 -4 15 2 24 14 15 19 20 20 35 9 13 -10 15 -21 10
-47 -6 -31 -5 -33 10 -20 9 7 17 20 17 27 0 17 -1 17 39 3 27 -10 32 -15 27
-35 -4 -13 -2 -24 4 -24 5 0 12 10 15 23 5 19 11 22 41 19 29 -4 34 -8 29 -23
-4 -13 -1 -19 9 -19 8 0 16 10 18 22 4 31 68 45 75 17 3 -10 10 -16 15 -13 5
3 7 13 3 22 -4 10 3 23 17 34 22 16 24 16 52 -10 24 -23 28 -24 23 -7 -15 51
-16 71 -7 85 8 13 13 13 40 -2 16 -9 30 -12 30 -7 0 6 -13 16 -29 22 -26 10
-28 13 -19 39 8 21 15 27 27 23 9 -4 22 -9 29 -12 6 -3 12 -1 12 5 0 6 -13 15
-30 21 -26 9 -30 15 -30 47 0 36 1 36 35 32 22 -2 34 0 32 6 -2 6 -20 12 -40
14 -29 3 -37 7 -37 23 0 23 39 25 121 8 46 -10 50 -13 36 -26 -14 -14 -18 -13
-43 6 -36 28 -44 18 -12 -17 35 -37 27 -54 -23 -46 -47 8 -52 -8 -8 -26 24
-10 29 -18 25 -34 -3 -12 -6 -24 -6 -28 0 -5 -9 -8 -20 -8 -17 0 -18 -3 -9
-18 15 -24 -16 -91 -34 -73 -18 18 -25 13 -19 -14 3 -18 -2 -31 -19 -45 -29
-23 -39 -25 -39 -5 0 8 -7 15 -16 15 -8 0 -13 -4 -10 -9 11 -17 -6 -40 -36
-50 -17 -6 -32 -11 -34 -11 -1 0 -4 12 -6 28 l-3 27 -15 -30 c-10 -20 -24 -31
-43 -33 -23 -3 -27 0 -27 22 0 33 -5 32 -33 0 -18 -20 -28 -24 -49 -19 -24 6
-26 11 -21 36 3 18 1 29 -6 29 -6 0 -11 -6 -11 -14 0 -28 -27 -39 -65 -26 -35
12 -36 13 -19 31 24 26 10 35 -21 15 -25 -16 -28 -16 -51 -1 l-25 16 26 20
c34 27 23 42 -16 21 -29 -17 -31 -16 -50 7 -19 24 -19 24 1 38 25 17 18 33
-15 33 -27 0 -30 3 -39 47 -6 27 -4 32 15 35 33 4 37 28 5 28 -20 0 -26 5 -26
23 0 34 15 50 39 42 12 -4 21 -2 21 4 0 6 -12 14 -26 17 -17 4 -23 11 -20 21
3 8 6 19 6 24 0 5 9 9 20 9 23 0 27 15 6 23 -17 7 -10 47 9 47 8 0 10 9 7 25
-2 13 -1 32 2 41 6 16 8 15 21 -2 15 -18 15 -18 10 6 -5 19 0 31 15 45 20 18
22 18 31 2 16 -28 29 -20 29 18 0 32 2 35 30 35 19 0 33 -7 40 -20 6 -11 15
-20 20 -20 6 0 10 9 10 20 0 16 7 20 30 20 20 0 30 -5 30 -15 0 -22 18 -18 25
5 4 14 15 20 36 20 22 0 29 -5 29 -20z m1223 4 c4 -4 -8 -23 -26 -44 -17 -20
-42 -50 -53 -66 -12 -16 -25 -26 -29 -22 -14 13 5 58 41 98 35 38 53 47 67 34z
m-308 -59 c30 -29 32 -60 6 -75 -28 -14 -46 -13 -71 8 -19 15 -20 21 -10 47
19 51 40 56 75 20z m364 1 c9 -11 6 -15 -14 -20 -15 -4 -40 -28 -62 -57 -23
-33 -39 -47 -46 -40 -10 10 15 53 61 104 29 30 44 34 61 13z m-1422 -47 c-22
-11 -52 -19 -70 -17 l-32 3 45 17 c25 9 56 17 70 17 22 0 21 -2 -13 -20z m181
-9 c23 -10 42 -21 42 -25 0 -3 -15 -5 -34 -5 -23 0 -45 9 -63 25 -25 22 -26
24 -8 24 11 1 39 -8 63 -19z m1266 14 c20 -8 21 -24 2 -24 -18 0 -58 -48 -75
-89 -8 -17 -17 -31 -21 -31 -31 0 -2 95 38 127 29 25 33 26 56 17z m-1359 -28
c12 -17 15 -43 13 -96 l-3 -72 -27 22 c-40 31 -54 86 -34 133 18 43 30 46 51
13z m1085 -16 c39 -39 13 -62 -39 -35 -34 17 -37 25 -19 43 17 17 35 15 58 -8z
m580 -31 c10 -6 4 -8 -21 -9 -22 0 -42 7 -50 16 -12 15 -10 16 21 9 19 -4 42
-11 50 -16z m-1817 -5 c33 -17 97 -73 97 -85 0 -9 -59 4 -85 19 -11 6 -36 26
-54 46 -33 34 -34 36 -12 36 12 0 36 -7 54 -16z m1711 0 c8 -21 6 -74 -3 -98
-6 -16 -10 -11 -19 25 -11 44 -7 89 8 89 4 0 11 -7 14 -16z m-64 -3 c0 -13
-41 -41 -60 -41 -10 1 -4 9 15 25 32 26 45 31 45 16z m-1350 -28 c0 -18 -14
-40 -45 -70 -55 -52 -69 -55 -60 -10 12 60 17 68 48 88 43 26 57 24 57 -8z
m-370 -17 c0 -13 -7 -29 -15 -36 -13 -11 -15 -8 -15 13 0 34 10 58 21 51 5 -3
9 -16 9 -28z m1381 24 c10 -6 19 -15 19 -20 0 -16 -26 -11 -51 10 -21 17 -22
19 -6 20 10 0 27 -5 38 -10z m509 -45 c-25 -41 -50 -57 -70 -45 -12 7 -12 11
0 26 17 19 83 63 89 58 2 -1 -7 -19 -19 -39z m76 -1 c8 -18 14 -36 14 -39 0
-10 -18 -5 -40 13 -17 13 -20 24 -15 45 9 32 22 26 41 -19z m-1510 -29 c8 -30
14 -69 12 -87 l-3 -33 -22 34 c-25 39 -38 100 -28 131 10 30 23 16 41 -45z
m1266 -11 c15 -15 28 -35 28 -45 0 -15 -5 -16 -42 -7 -50 13 -88 43 -88 71 0
17 5 19 37 14 20 -4 49 -19 65 -33z m-1597 -5 c22 -6 43 -16 47 -23 5 -7 8 -5
8 7 0 25 46 23 60 -4 21 -37 -37 -71 -58 -34 -7 13 -14 13 -41 4 -33 -12 -89
-7 -138 12 l-28 11 24 19 c26 21 67 24 126 8z m1442 -16 c-4 -3 -7 0 -7 7 0 7
3 10 7 7 3 -4 3 -10 0 -14z m259 -8 c8 -19 -13 -45 -36 -45 -25 0 -31 21 -12
43 19 21 41 22 48 2z m-217 -7 c0 -7 -4 -22 -9 -33 -7 -17 -9 -15 -9 13 -1 17
4 32 9 32 6 0 10 -6 9 -12z m378 -4 c14 -37 -59 -56 -126 -33 -38 13 -30 27
21 39 58 14 98 11 105 -6z m-1574 -57 c22 -26 37 -50 34 -54 -13 -13 -92 20
-124 52 -44 44 -43 57 8 53 36 -3 48 -10 82 -51z m-129 -8 c26 -64 32 -152 12
-168 -23 -19 -41 -1 -55 54 -14 55 -14 110 -1 136 16 28 26 23 44 -22z m1464
19 c-6 -18 -74 -50 -111 -52 -43 -2 -42 21 3 45 39 21 114 26 108 7z m128 -55
c8 -18 14 -42 14 -54 0 -22 0 -22 -21 -3 -27 23 -62 100 -54 115 10 15 45 -19
61 -58z m414 -111 c0 -7 -61 30 -90 55 -35 29 -90 100 -90 116 0 5 41 -30 90
-79 50 -49 90 -90 90 -92z m-2080 152 c0 -30 -32 -70 -77 -98 -25 -15 -47 -25
-50 -22 -3 2 4 25 15 49 15 33 31 51 59 66 47 25 53 25 53 5z m-160 -65 c0
-10 -2 -19 -5 -19 -9 0 -45 64 -45 80 1 23 50 -37 50 -61z m1740 42 c0 -35
-19 -91 -31 -91 -12 0 -11 77 1 101 15 28 30 23 30 -10z m175 -8 c-43 -67 -45
-69 -45 -50 0 22 18 59 34 69 23 16 28 7 11 -19z m112 10 c-4 -3 -7 0 -7 7 0
7 3 10 7 7 3 -4 3 -10 0 -14z m96 -82 c37 -44 63 -82 58 -85 -9 -6 -141 137
-141 153 0 23 17 8 83 -68z m-132 11 c-33 -52 -60 -79 -106 -108 -16 -10 -3 7
31 38 33 31 69 72 79 92 11 19 21 33 23 31 3 -2 -9 -26 -27 -53z m-356 32 c18
-7 50 -63 40 -72 -8 -9 -69 26 -96 54 l-22 24 30 0 c17 0 39 -3 48 -6z m-1255
-44 c0 -5 -17 -21 -37 -35 -32 -21 -39 -23 -41 -9 -5 22 27 54 55 54 12 0 23
-4 23 -10z m1430 -31 c0 -5 -21 -9 -47 -8 -48 1 -48 1 -19 13 30 14 66 11 66
-5z m-1670 -11 c21 -20 22 -23 7 -26 -21 -4 -87 17 -87 27 0 28 49 28 80 -1z
m1885 -39 c20 -28 35 -53 33 -55 -9 -8 -90 85 -84 95 10 16 11 16 51 -40z m65
6 c19 -19 32 -35 29 -35 -3 0 -20 16 -39 35 -19 19 -32 35 -29 35 3 0 20 -16
39 -35z m-80 -87 c0 -17 -16 -6 -42 26 -40 50 -34 68 7 21 19 -22 34 -43 35
-47z m-77 13 c27 -39 34 -61 20 -61 -8 0 -63 82 -63 94 0 16 17 2 43 -33z
m-40 -38 c26 -35 33 -51 25 -60 -17 -20 -22 -16 -56 47 -42 75 -21 83 31 13z
m-64 -43 c24 -39 41 -74 37 -77 -7 -8 -3 -13 -59 75 -26 39 -41 72 -34 72 7 0
32 -32 56 -70z m564 58 c9 -7 17 -26 19 -42 4 -37 -20 -54 -59 -40 -33 11 -43
53 -18 78 20 19 36 20 58 4z m-608 -88 c45 -90 52 -110 37 -110 -5 0 -20 28
-34 63 -15 34 -34 79 -42 100 -30 69 -7 38 39 -53z m620 -35 c29 -28 31 -38 9
-59 -11 -11 -35 -16 -82 -16 -86 0 -95 6 -76 46 28 57 106 73 149 29z m-777
-161 c4 -67 1 -89 -17 -129 -30 -67 -89 -142 -164 -206 l-62 -54 78 85 c102
110 151 206 152 294 0 33 -3 77 -7 96 -7 30 -6 32 4 15 7 -11 14 -56 16 -101z
m332 37 c-12 -23 -18 -25 -39 -12 -11 7 -7 12 15 24 35 18 39 16 24 -12z m50
-78 c-8 -36 -16 -53 -27 -53 -22 0 -13 99 13 137 l19 28 3 -30 c2 -16 -1 -54
-8 -82z m343 96 c39 -20 67 -52 67 -75 0 -31 -34 -48 -92 -47 -61 1 -102 25
-92 56 8 28 34 57 59 68 28 11 33 11 58 -2z m-272 -29 l24 -20 -30 2 c-19 2
-31 9 -33 21 -5 23 10 22 39 -3z m-163 -57 c10 -16 22 -36 25 -46 6 -15 4 -16
-16 -6 -36 19 -57 41 -57 61 0 27 26 22 48 -9z m202 -2 c0 -10 -48 -59 -70
-71 -9 -5 -22 -4 -31 1 -11 8 -7 16 25 44 37 33 76 46 76 26z m-270 -35 c0 -7
-8 -20 -17 -27 -15 -12 -16 -12 -10 4 4 10 7 23 7 28 0 5 5 9 10 9 6 0 10 -6
10 -14z m290 -26 c8 -28 7 -31 -8 -25 -9 4 -24 9 -33 12 -14 4 -14 8 5 27 11
12 22 21 24 20 1 -1 7 -16 12 -34z m232 -25 c29 -19 35 -29 31 -47 -8 -30 -21
-38 -65 -38 -62 0 -89 49 -48 90 26 26 38 25 82 -5z m-355 -1 c3 -8 -2 -23
-11 -32 -15 -15 -17 -15 -33 0 -13 14 -14 20 -3 32 16 20 39 20 47 0z m104
-10 c35 -18 36 -47 1 -52 -26 -4 -97 37 -85 48 4 5 17 10 28 13 11 3 21 5 23
6 2 0 17 -6 33 -15z m-181 1 c0 -11 -83 -46 -103 -43 -30 4 -28 31 3 39 29 8
100 11 100 4z m21 -83 c-11 -21 -31 -48 -45 -61 -23 -21 -26 -22 -26 -6 0 9
14 42 31 72 25 43 34 52 45 42 11 -9 10 -17 -5 -47z m69 28 c16 -30 24 -106
12 -114 -17 -10 -42 47 -42 94 0 43 13 52 30 20z m-196 -32 c9 -12 16 -34 16
-48 l-1 -25 -24 28 c-25 28 -34 67 -16 67 6 0 17 -10 25 -22z m298 -25 c-14
-26 -51 -57 -59 -50 -10 11 17 54 41 65 26 12 30 9 18 -15z m-402 -30 c0 -18
-5 -24 -17 -21 -19 4 -28 30 -19 55 9 23 36 -3 36 -34z m614 24 c26 -19 17
-51 -16 -55 -48 -6 -88 34 -61 61 11 12 58 8 77 -6z m-349 -44 c14 -14 15 -17
2 -24 -7 -5 -30 -6 -50 -2 -32 5 -34 7 -24 24 15 23 50 25 72 2z m294 -72 c10
-22 10 -34 1 -50 l-11 -22 -40 23 c-22 12 -47 31 -57 41 -16 18 -16 20 12 42
27 22 32 22 56 10 15 -8 33 -27 39 -44z m-579 30 c25 -47 -2 -107 -38 -84 -10
5 -26 25 -36 43 -19 32 -19 33 -1 46 27 20 63 17 75 -5z m-340 -65 c0 -3 -5
-8 -12 -12 -7 -4 -8 -3 -4 4 7 12 16 16 16 8z m841 -42 c32 -30 38 -68 13 -78
-34 -13 -90 -6 -112 14 -25 23 -37 62 -28 86 10 27 91 13 127 -22z m-538 -5
c20 -24 23 -79 5 -97 -7 -7 -21 -12 -31 -12 -21 0 -117 68 -117 83 0 4 12 19
26 34 21 21 32 24 62 19 20 -3 45 -15 55 -27z m182 -9 c-3 -5 -16 -10 -28 -10
-18 0 -19 2 -7 10 20 13 43 13 35 0z m246 -80 c71 -36 82 -55 48 -83 -28 -23
-66 -20 -152 13 -90 34 -108 67 -49 89 48 17 91 12 153 -19z m-534 -12 c25
-24 42 -72 35 -101 -5 -20 -42 -32 -74 -23 -13 3 -43 29 -67 57 l-45 52 29 24
c34 30 84 26 122 -9z m-143 -68 c33 -40 53 -106 40 -128 -12 -19 -56 -32 -81
-26 -16 5 -45 68 -60 132 -13 56 59 72 101 22z m301 9 c8 -12 -13 -69 -25 -69
-5 0 -11 6 -14 13 -3 6 -4 1 -1 -13 6 -34 -40 -95 -50 -67 -11 26 -26 21 -19
-7 4 -19 -1 -27 -31 -46 -29 -18 -39 -20 -45 -10 -6 10 -14 6 -33 -16 -29 -33
-41 -29 -31 11 8 31 38 45 79 38 24 -5 27 -3 23 14 -4 16 4 26 32 44 21 13 41
33 46 44 5 11 19 24 31 30 16 7 21 15 17 27 -6 19 11 25 21 7z m35 -35 c0 -8
-5 -12 -10 -9 -6 4 -8 11 -5 16 9 14 15 11 15 -7z m320 -24 c22 -11 47 -34 55
-51 15 -28 15 -33 1 -54 -21 -32 -73 -41 -162 -28 -82 12 -127 31 -132 56 -13
66 48 110 141 102 31 -2 75 -14 97 -25z m-781 -15 c37 -42 40 -79 9 -112 -29
-31 -54 -29 -73 7 -18 34 -19 52 -4 103 13 46 28 47 68 2z m448 9 c-3 -3 -12
-4 -19 -1 -8 3 -5 6 6 6 11 1 17 -2 13 -5z m3 -39 c0 -10 -10 -15 -31 -15 -27
0 -30 2 -19 15 7 8 21 15 31 15 11 0 19 -7 19 -15z m-578 -32 c21 -19 24 -75
5 -92 -8 -6 -28 -14 -45 -17 -29 -6 -33 -4 -47 29 -8 20 -15 45 -15 56 0 39
68 55 102 24z m569 -13 c10 -6 19 -17 19 -25 0 -18 -1 -18 -36 0 -16 8 -37 15
-47 15 -10 0 -15 5 -12 10 8 13 51 13 76 0z m-695 -37 c3 -16 7 -32 9 -38 4
-16 -14 -45 -29 -45 -24 0 -48 84 -29 103 16 17 43 6 49 -20z m681 -18 c23
-14 43 -33 43 -41 0 -8 7 -28 15 -44 13 -25 13 -30 1 -30 -7 0 -19 13 -26 29
-15 36 -77 81 -112 81 -27 0 -43 12 -31 24 14 14 69 4 110 -19z m-773 -11 c26
-25 31 -62 11 -84 -27 -29 -42 -25 -65 20 -16 31 -18 45 -10 60 13 24 43 26
64 4z m480 -9 c14 -14 21 -25 16 -25 -4 0 -16 -3 -24 -6 -12 -4 -15 -2 -10 9
3 8 1 18 -4 21 -6 3 -12 -4 -16 -17 -4 -16 -17 -25 -48 -33 -24 -6 -51 -14
-60 -19 -13 -5 -18 -3 -18 10 0 15 -2 15 -17 -3 -25 -28 -110 -47 -131 -30 -9
8 -17 9 -19 3 -7 -20 -19 -31 -57 -53 -30 -18 -41 -20 -52 -11 -8 6 -14 15
-14 19 0 14 31 20 51 10 16 -9 19 -7 19 13 0 40 82 63 131 36 18 -9 19 -7 13
15 -5 23 -2 26 43 39 43 13 50 13 67 -2 18 -15 18 -15 12 5 -6 18 -1 22 36 31
24 6 46 11 50 12 4 0 18 -10 32 -24z m218 -25 c74 -44 84 -60 39 -60 -20 0
-34 8 -45 25 -9 14 -35 33 -57 42 -29 11 -37 18 -27 24 18 12 15 13 90 -31z
m466 4 c35 -24 27 -72 -16 -97 -43 -25 -121 -27 -156 -3 -40 26 -33 72 14 97
43 24 127 25 158 3z m-552 -28 c19 -19 34 -40 34 -47 0 -8 -8 -2 -18 14 -9 15
-24 30 -33 32 -23 8 -46 35 -29 35 6 0 27 -15 46 -34z m-60 -8 c31 -35 54 -75
47 -82 -12 -12 -21 -5 -34 27 -7 17 -24 42 -38 55 -16 15 -19 22 -9 22 8 0 23
-10 34 -22z m-641 -14 c33 -36 33 -78 -1 -101 -34 -22 -53 -10 -78 50 -16 38
-17 49 -6 61 19 24 58 19 85 -10z m601 -16 c11 -12 28 -35 37 -51 16 -24 16
-30 3 -55 l-14 -27 -12 48 c-9 35 -23 57 -52 81 -25 22 -35 36 -26 39 17 6 38
-6 64 -35z m-691 -80 c27 -32 30 -49 15 -77 -17 -32 -38 -32 -75 0 -38 34 -47
76 -20 102 20 20 50 11 80 -25z m422 35 c-4 -3 -10 -3 -14 0 -3 4 0 7 7 7 7 0
10 -3 7 -7z m-50 -10 c-4 -3 -10 -3 -14 0 -3 4 0 7 7 7 7 0 10 -3 7 -7z m997
-29 c25 -24 19 -52 -14 -69 -40 -21 -86 -19 -110 5 -25 25 -25 33 -2 52 35 31
101 37 126 12z m-938 -9 c-19 -14 -76 -21 -76 -10 0 9 43 24 70 24 24 0 24 0
6 -14z m195 -76 c11 -23 18 -43 15 -46 -8 -8 -78 44 -97 74 -31 46 -24 56 21
33 26 -13 47 -34 61 -61z m-121 46 c0 -47 -55 -125 -78 -111 -21 13 9 92 47
124 22 18 31 15 31 -13z m-130 -42 c58 -91 29 -121 -42 -44 -26 29 -48 48 -48
42 0 -6 -8 -11 -17 -11 -14 1 -10 8 15 30 18 17 39 30 47 30 9 0 29 -21 45
-47z m-443 -15 c40 -38 24 -78 -32 -78 -38 0 -55 16 -55 50 0 51 46 66 87 28z
m1447 -29 c35 -28 35 -66 -1 -75 -46 -12 -72 19 -59 72 8 29 25 30 60 3z
m-1081 -5 c41 -21 78 -55 71 -65 -7 -13 -111 -11 -135 1 -21 12 -24 32 -9 61
13 23 31 24 73 3z m335 -47 c14 -15 14 -17 -4 -24 -10 -4 -48 -8 -84 -8 -54 0
-65 3 -68 18 -2 10 5 21 20 27 33 14 116 6 136 -13z m-183 -13 c0 -12 -8 -20
-22 -22 -17 -3 -23 2 -23 16 0 20 16 33 35 28 6 -2 10 -11 10 -22z m-576 -15
c36 -13 36 -11 15 -52 -32 -62 -54 -53 -54 21 0 23 2 42 4 42 1 0 17 -5 35
-11z m361 -42 c0 -4 -5 -18 -11 -29 -9 -17 -13 -18 -20 -7 -11 17 -12 63 -2
73 8 7 33 -21 33 -37z m258 -1 c29 -33 50 -91 38 -103 -16 -16 -104 106 -91
127 10 17 21 12 53 -24z m-128 10 c0 -16 -48 -60 -91 -82 -19 -9 -29 -11 -29
-3 0 22 43 71 74 85 40 17 46 17 46 0z m56 -12 c8 -31 -1 -103 -14 -116 -20
-20 -32 4 -32 61 0 73 32 112 46 55z m217 7 c-7 -26 -59 -88 -68 -79 -11 11 6
50 33 75 30 28 42 29 35 4z m807 -20 c5 -11 10 -28 10 -37 0 -14 -6 -12 -30
11 -16 16 -30 32 -30 37 0 16 40 7 50 -11z m-1110 -96 c16 -20 -3 -20 -45 0
l-30 13 31 1 c17 1 37 -6 44 -14z m148 6 c10 -6 8 -10 -10 -14 -41 -12 -52 -9
-38 8 14 17 29 19 48 6z"/>
<path d="M1042 3760 c-51 -21 -113 -73 -139 -118 -24 -40 -28 -57 -27 -122 1
-102 31 -177 98 -246 59 -60 110 -79 184 -68 130 19 209 92 232 213 23 120
-54 287 -155 332 -43 20 -152 25 -193 9z m187 -49 c51 -26 54 -46 5 -37 -53
10 -124 42 -124 57 0 16 74 4 119 -20z m-216 -53 c-10 -17 -33 -38 -51 -45
-46 -19 -41 0 14 56 50 49 69 44 37 -11z m102 8 c22 -33 29 -86 15 -120 -10
-28 -11 -29 -24 -10 -32 46 -43 154 -15 154 5 0 16 -11 24 -24z m149 -58 c-3
-13 -11 -29 -17 -36 -13 -17 -97 -66 -102 -60 -9 9 23 92 40 104 10 8 34 14
53 14 30 0 33 -2 26 -22z m80 -67 c20 -69 16 -84 -15 -55 -32 29 -41 53 -34
91 9 49 27 36 49 -36z m-268 4 c15 -20 25 -37 23 -40 -8 -7 -67 26 -90 51 -19
21 -21 27 -9 34 19 12 44 -3 76 -45z m-118 -58 c19 -36 23 -54 17 -86 -4 -23
-10 -41 -15 -41 -13 0 -41 79 -47 133 -8 63 11 61 45 -6z m302 29 c0 -16 -22
-26 -53 -26 -22 1 -22 1 2 20 27 23 51 26 51 6z m-100 -46 c0 -16 -17 -19 -35
-6 -24 18 -11 40 16 26 10 -6 19 -15 19 -20z m-80 12 c0 -4 -14 -16 -30 -25
-28 -17 -31 -17 -37 -2 -3 10 0 21 8 26 17 11 59 12 59 1z m40 -45 c0 -17 -57
-97 -68 -96 -4 0 -16 4 -26 8 -17 7 -15 12 26 54 45 47 68 59 68 34z m142 -14
c24 -22 23 -33 -6 -33 -25 0 -76 35 -76 52 0 15 60 1 82 -19z m-89 -7 c21 -32
33 -96 18 -96 -15 0 -41 61 -41 95 0 31 4 31 23 1z m162 -45 c-18 -36 -25 -39
-25 -12 0 20 28 56 37 47 2 -2 -3 -18 -12 -35z m-272 -89 c15 -15 27 -31 27
-34 0 -13 -39 5 -71 32 l-34 29 26 1 c15 0 36 -11 52 -28z m187 -1 c0 -5 -13
-14 -30 -20 -16 -5 -30 -6 -30 -1 0 7 23 18 58 29 1 1 2 -3 2 -8z"/>
<path d="M1282 3071 c-97 -33 -140 -103 -128 -209 7 -68 63 -188 113 -243 63
-70 180 -87 271 -40 122 62 153 210 77 361 -55 108 -215 171 -333 131z m177
-41 c13 -7 10 -11 -18 -23 -19 -8 -41 -13 -48 -10 -18 7 -16 -12 2 -27 16 -14
21 -95 6 -104 -19 -12 -36 29 -37 85 -1 43 -6 65 -20 80 l-19 22 59 -7 c32 -3
66 -11 75 -16z m-179 -18 c0 -20 -21 -42 -57 -61 -32 -17 -29 2 8 44 35 39 49
44 49 17z m297 -81 c8 -18 12 -35 9 -38 -9 -9 -28 9 -41 40 l-13 30 -19 -44
c-16 -36 -27 -46 -59 -56 -21 -6 -40 -10 -43 -8 -2 2 5 21 15 42 13 25 33 45
59 58 22 11 42 24 43 28 6 13 34 -16 49 -52z m-231 -28 c15 -24 23 -47 20 -50
-12 -12 -89 74 -83 91 10 24 35 8 63 -41z m258 -45 c3 -13 6 -52 6 -87 0 -54
-2 -62 -14 -52 -21 18 -38 105 -26 136 12 31 26 32 34 3z m-360 -57 c20 -28
26 -48 24 -73 -4 -33 -4 -32 -36 32 -48 97 -42 119 12 41z m92 38 c7 -13 -9
-26 -44 -35 -26 -7 -59 17 -48 35 9 14 83 14 92 0z m82 -22 c2 -11 -3 -17 -15
-17 -10 -1 -27 -15 -38 -33 -13 -21 -30 -33 -48 -35 -47 -6 -30 29 26 53 21 9
35 20 32 25 -9 15 5 32 23 28 9 -2 18 -11 20 -21z m116 14 c18 -7 17 -9 -10
-28 -28 -20 -32 -21 -63 -6 l-33 16 24 13 c26 15 53 16 82 5z m-14 -111 c18
-28 30 -53 27 -56 -2 -3 -20 -1 -38 3 -35 9 -59 44 -75 108 l-7 27 30 -16 c17
-8 45 -38 63 -66z m-95 1 c-1 -33 -6 -57 -17 -67 -37 -37 -51 21 -20 87 23 51
37 43 37 -20z m-48 -105 c15 -13 25 -27 21 -31 -8 -8 -88 35 -88 47 0 17 40 7
67 -16z m182 8 c-18 -22 -64 -44 -91 -44 -21 1 -21 3 12 30 38 33 105 45 79
14z"/>
<path d="M113 4126 c-23 -7 -58 -23 -77 -36 -34 -20 -36 -25 -36 -72 l0 -51
50 47 c66 62 109 79 195 80 76 1 137 -24 204 -80 56 -47 110 -187 111 -285 0
-108 -66 -206 -174 -259 -137 -67 -239 -59 -353 28 -32 24 -33 24 -33 4 0 -13
15 -32 38 -48 20 -16 49 -39 63 -52 17 -15 29 -20 33 -13 12 19 28 12 21 -8
-9 -29 12 -35 41 -12 15 12 36 21 46 21 18 0 16 -4 -12 -36 -52 -60 -20 -59
42 0 50 49 62 55 114 62 33 5 83 8 111 9 75 0 66 15 -9 16 -62 1 -62 1 -33 14
17 8 42 14 57 15 15 0 30 5 33 10 3 6 -3 10 -15 10 -20 0 -20 1 4 38 15 24 28
67 36 125 12 76 11 98 -2 161 -33 150 -80 211 -211 277 -93 47 -172 59 -244
35z"/>
<path d="M215 4061 c-47 -12 -94 -39 -142 -84 -69 -64 -73 -76 -73 -240 0
-143 0 -144 29 -184 44 -61 88 -78 201 -78 83 0 101 4 145 27 151 80 202 238
127 390 -60 123 -183 195 -287 169z m93 -27 c22 -6 22 -8 6 -25 -22 -24 -56
-24 -78 0 -13 15 -14 20 -4 24 18 8 49 8 76 1z m-148 -69 c-7 -8 -24 -15 -39
-15 l-26 1 35 30 c28 24 36 27 38 14 2 -9 -2 -22 -8 -30z m295 -50 c13 -22 27
-53 31 -69 l7 -29 -33 19 c-47 28 -70 65 -70 115 l0 42 21 -19 c12 -10 32 -37
44 -59z m-200 5 c8 -16 15 -48 15 -70 0 -34 -3 -41 -17 -38 -26 5 -49 82 -34
114 14 31 17 30 36 -6z m-86 -29 c11 -11 27 -34 36 -51 16 -32 16 -32 -7 -25
-55 17 -86 50 -74 80 7 20 22 19 45 -4z m201 -17 c0 -21 -57 -74 -81 -74 -45
0 25 85 74 89 4 1 7 -6 7 -15z m-320 -43 c0 -24 -8 -48 -20 -62 l-19 -24 -1
25 c0 36 19 100 30 100 6 0 10 -18 10 -39z m388 -36 c7 -6 -18 -34 -41 -46
-22 -13 -80 7 -74 25 9 28 93 44 115 21z m-170 -7 c18 -18 14 -38 -7 -38 -23
0 -35 15 -27 35 7 18 18 19 34 3z m-72 -8 c26 -10 26 -12 10 -28 -12 -12 -33
-17 -76 -17 -85 0 -94 15 -23 40 47 17 55 18 89 5z m289 -95 c-8 -30 -19 -55
-24 -55 -4 0 -12 15 -18 33 -8 28 -5 38 21 79 28 43 31 45 34 22 2 -13 -4 -49
-13 -79z m-148 54 c18 -11 40 -34 48 -50 15 -28 15 -29 -11 -29 -33 0 -97 61
-88 84 8 20 10 20 51 -5z m-105 -11 c10 -29 -6 -69 -33 -83 -45 -24 -62 -20
-54 13 12 50 77 102 87 70z m64 -59 c15 -31 23 -58 19 -70 -7 -20 -7 -20 -31
2 -28 26 -48 81 -39 109 9 28 21 18 51 -41z m-186 -100 c0 -36 -2 -39 -20 -29
-23 12 -70 89 -70 114 0 14 8 11 45 -14 41 -28 45 -35 45 -71z m318 9 c-6 -17
-97 -73 -105 -64 -4 3 -2 19 3 34 7 21 17 28 49 33 22 3 44 7 48 8 5 0 7 -5 5
-11z m-192 -76 c-69 -4 -79 3 -48 29 23 18 24 18 65 -4 l42 -22 -59 -3z"/>
<path d="M385 3391 c-62 -15 -145 -78 -145 -110 0 -9 13 0 31 22 45 55 97 78
198 87 l86 7 -70 1 c-38 0 -83 -3 -100 -7z"/>
<path d="M377 3346 c-55 -20 -116 -74 -117 -103 0 -20 8 -16 48 29 20 22 51
47 69 55 38 15 114 17 162 3 19 -5 37 -7 40 -5 25 26 -142 44 -202 21z"/>
<path d="M385 3292 c-37 -18 -105 -82 -105 -101 0 -23 16 -16 42 20 39 54 95
79 180 79 37 0 79 -5 95 -11 27 -10 27 -9 10 8 -27 27 -168 30 -222 5z"/>
<path d="M437 3259 c-59 -14 -73 -24 -106 -84 -42 -74 -39 -83 10 -30 60 65
128 88 242 83 70 -3 85 -2 75 8 -13 13 -123 35 -163 33 -11 -1 -37 -5 -58 -10z"/>
<path d="M1172 1977 c-6 -7 -18 -41 -27 -77 -21 -82 -61 -156 -100 -185 -16
-13 -61 -36 -100 -52 -38 -17 -70 -35 -70 -42 0 -7 36 -27 80 -45 99 -41 170
-77 214 -110 19 -14 43 -26 52 -26 17 0 16 4 -3 48 -16 35 -22 67 -22 127 0
105 29 171 108 246 65 61 68 56 -57 103 -49 19 -68 22 -75 13z m139 -90 c-9
-9 -131 59 -131 74 0 5 31 -8 69 -28 39 -21 66 -42 62 -46z m-73 13 c42 -30
53 -50 29 -50 -19 0 -107 58 -107 70 0 19 37 10 78 -20z m-33 -48 c33 -21 42
-31 34 -39 -14 -14 -89 31 -89 53 0 19 4 18 55 -14z m5 -79 c0 -19 -9 -16 -47
13 -18 14 -31 29 -28 34 8 12 75 -31 75 -47z m-52 -23 c31 -19 44 -50 20 -50
-18 0 -79 50 -73 61 9 13 16 11 53 -11z m-22 -56 c25 -15 44 -33 44 -43 0 -15
-8 -13 -63 13 -47 23 -61 34 -54 44 13 17 23 15 73 -14z m-63 -35 c59 -30 107
-68 107 -85 0 -19 -1 -19 -72 17 -85 43 -121 71 -106 81 19 11 24 10 71 -13z
m9 -71 c43 -26 82 -48 88 -48 10 0 30 -32 30 -49 0 -21 -6 -18 -234 109 l-59
33 29 12 c33 14 34 14 146 -57z"/>
<path d="M1408 1905 c-60 -20 -150 -101 -173 -158 -52 -125 17 -312 135 -364
84 -38 273 -5 347 60 20 18 45 52 56 76 24 55 34 189 18 248 -14 53 -76 107
-146 129 -72 23 -180 27 -237 9z m268 -51 c83 -41 99 -73 98 -187 -1 -76 -5
-96 -30 -145 -25 -48 -38 -61 -84 -84 -108 -55 -247 -55 -317 -2 -39 30 -80
106 -93 172 -21 113 46 222 164 269 18 8 66 12 117 10 72 -3 96 -8 145 -33z"/>
<path d="M1449 1866 c-81 -22 -151 -94 -168 -176 -14 -64 6 -131 55 -188 87
-102 192 -109 318 -23 92 64 129 215 73 301 -48 71 -180 113 -278 86z m44 -61
c19 -40 23 -105 6 -105 -12 0 -35 51 -44 103 -10 49 15 51 38 2z m92 25 c-3
-5 -21 -10 -40 -10 -19 0 -37 5 -40 10 -4 6 12 10 40 10 28 0 44 -4 40 -10z
m-157 -25 c-11 -25 -45 -41 -70 -33 -11 4 57 58 74 58 4 0 2 -11 -4 -25z m209
17 c10 -6 5 -22 -20 -62 -36 -60 -61 -80 -77 -64 -17 17 -1 61 35 100 34 36
42 39 62 26z m88 -89 c8 -28 -10 -30 -43 -7 -16 11 -22 25 -22 52 l0 37 29
-30 c16 -17 32 -40 36 -52z m-302 -7 c18 -7 41 -23 51 -35 19 -21 19 -21 -8
-21 -23 0 -116 52 -116 65 0 10 42 5 73 -9z m-112 -73 c-9 -16 -10 -15 -11 9
0 14 3 35 8 45 6 15 8 14 10 -9 2 -15 -1 -35 -7 -45z m417 20 c-4 -21 -69 -37
-115 -28 -66 12 -20 43 65 44 45 1 53 -2 50 -16z m-178 -22 c0 -11 -26 -22
-34 -14 -12 12 -5 23 14 23 11 0 20 -4 20 -9z m-102 -9 c19 -13 -31 -32 -81
-32 l-42 1 24 19 c24 20 76 26 99 12z m272 -31 c-11 -39 -25 -63 -49 -85 -21
-19 -21 -19 -21 18 0 28 7 45 29 67 38 37 52 38 41 0z m-119 -44 c11 -21 19
-48 17 -60 -3 -19 -5 -18 -36 12 -34 34 -48 70 -38 97 9 22 31 3 57 -49z m-81
48 c0 -20 -52 -116 -71 -128 -29 -21 -32 -17 -24 32 7 44 52 101 79 101 9 0
16 -2 16 -5z m-166 -56 c16 -13 26 -30 26 -46 0 -26 0 -26 -21 -7 -25 23 -53
74 -41 74 5 0 21 -9 36 -21z m221 -78 c19 -8 19 -8 -1 -19 -12 -6 -40 -14 -63
-18 -48 -8 -55 8 -13 30 30 17 47 18 77 7z"/>
<path d="M186 1862 c-14 -27 -61 -90 -105 -140 -45 -50 -81 -94 -81 -97 0 -3
26 12 58 33 61 42 111 98 138 156 l18 36 30 -62 c37 -75 124 -172 180 -200 66
-34 94 -39 241 -47 159 -9 170 -13 362 -117 144 -78 248 -105 403 -107 209 -2
339 57 390 175 17 39 25 81 29 157 l6 103 47 -41 c93 -82 153 -257 128 -375
-20 -98 -139 -242 -252 -306 -54 -30 -47 -19 11 18 74 48 156 142 182 209 18
46 22 79 23 154 0 90 -2 100 -37 174 -21 43 -40 75 -43 72 -3 -3 10 -34 28
-68 32 -61 33 -69 33 -174 0 -94 -3 -118 -24 -162 -13 -29 -29 -57 -37 -63 -7
-7 -3 8 9 32 19 38 22 59 22 173 0 198 -36 271 -69 139 -30 -121 -95 -217
-170 -253 -36 -18 -62 -21 -167 -21 -144 0 -415 32 -458 55 -17 8 -32 15 -34
15 -2 0 -7 -42 -10 -92 -3 -51 -10 -110 -17 -130 -17 -57 -72 -129 -115 -152
-55 -29 -183 -27 -275 3 -36 11 -68 21 -72 21 -5 0 -8 -35 -9 -77 l0 -78 -18
68 c-44 167 -183 258 -349 226 -53 -10 -74 -19 -108 -51 -64 -59 -74 -88 -74
-219 0 -101 3 -116 24 -153 61 -104 194 -143 323 -94 77 28 156 106 177 174 8
28 15 39 15 27 1 -38 -35 -122 -73 -168 -72 -87 -207 -124 -335 -91 -36 9 -80
28 -98 42 l-33 25 0 -32 c0 -42 56 -145 94 -172 26 -18 45 -22 112 -22 72 0
85 3 123 28 51 34 66 29 19 -6 -47 -36 -110 -50 -188 -42 -76 8 -99 20 -131
71 -12 21 -25 32 -27 26 -6 -19 37 -81 68 -97 42 -22 150 -30 211 -15 39 10
63 24 96 56 l43 44 -31 -62 c-49 -98 -70 -233 -53 -341 5 -27 12 -37 25 -37
16 0 17 8 12 88 -9 152 38 292 132 389 60 61 105 77 270 93 167 17 201 41 246
178 38 118 126 178 264 183 28 1 113 -2 191 -6 128 -7 147 -6 210 13 129 39
291 178 350 299 66 134 31 334 -80 460 -39 45 -108 87 -129 80 -8 -2 -12 -39
-12 -118 -1 -127 -13 -170 -67 -226 -63 -66 -200 -100 -353 -89 -152 10 -222
35 -410 141 -132 75 -172 86 -335 94 -115 6 -155 12 -193 29 -67 30 -145 114
-196 211 -23 44 -44 81 -46 81 -3 0 -16 -22 -29 -48z m1723 -356 c-14 -16 -20
0 -13 30 l8 29 6 -25 c4 -14 3 -29 -1 -34z m11 -46 c0 -30 -13 -40 -25 -20 -8
13 4 50 16 50 5 0 9 -13 9 -30z m-43 -22 c-3 -8 -6 -5 -6 6 -1 11 2 17 5 13 3
-3 4 -12 1 -19z m25 -35 c24 -21 23 -50 -2 -63 -16 -8 -22 -6 -35 14 -17 26
-13 66 7 66 6 0 20 -7 30 -17z m-24 -99 c26 -18 30 -62 5 -71 -17 -7 -73 49
-73 74 0 18 41 16 68 -3z m-51 -69 c29 -51 29 -57 -6 -78 -27 -16 -29 -16 -44
1 -30 33 -38 99 -14 114 22 14 41 3 64 -37z m-702 0 c28 -36 55 -111 55 -152
0 -26 -23 -30 -65 -11 -41 19 -57 60 -49 126 10 86 18 91 59 37z m133 -11 c18
-13 22 -25 22 -73 0 -68 -14 -87 -53 -72 -34 13 -51 70 -36 123 11 42 30 48
67 22z m166 -23 c12 -13 13 -28 7 -74 -4 -31 -10 -59 -12 -61 -13 -11 -81 9
-90 26 -43 81 37 173 95 109z m297 16 c9 -7 19 -25 23 -42 4 -16 9 -37 12 -46
5 -17 -64 -56 -76 -42 -15 16 -30 81 -24 99 16 44 36 53 65 31z m-197 -13 c12
-12 15 -28 10 -72 -8 -80 -10 -84 -41 -80 -28 3 -28 3 -25 73 5 90 22 114 56
79z m95 -12 c12 -22 17 -114 7 -130 -4 -7 -21 -12 -38 -12 l-30 0 7 63 c3 34
9 70 11 80 7 22 31 22 43 -1z m241 -66 c0 -9 -99 -76 -147 -100 -41 -21 -64
-26 -119 -25 l-69 1 54 9 c53 9 256 93 267 110 5 9 14 12 14 5z m-1650 -35 c0
-17 -40 -39 -61 -34 -33 9 -31 22 3 32 44 12 58 13 58 2z m64 -7 c11 -30 6
-115 -9 -144 -9 -17 -18 -30 -20 -30 -12 0 -35 63 -35 95 0 65 47 124 64 79z
m121 -39 l30 -24 -33 -1 c-32 0 -82 36 -82 59 0 15 50 -5 85 -34z m690 15 c17
-19 17 -22 3 -37 -21 -21 -48 -10 -48 20 0 41 17 48 45 17z m-911 -100 c51
-70 52 -74 20 -56 -16 9 -36 21 -45 28 -20 16 -69 87 -69 100 0 19 63 -29 94
-72z m1171 60 c-213 -25 -256 -41 -331 -122 -28 -31 -41 -41 -30 -23 66 106
170 154 336 153 84 -1 84 -1 25 -8z m-1270 -97 c-3 -23 -15 -52 -25 -65 -18
-22 -19 -22 -21 -3 -3 46 4 92 18 125 l15 35 10 -25 c5 -14 7 -44 3 -67z m950
67 c0 -15 -31 -37 -40 -28 -9 9 18 49 30 45 5 -2 10 -10 10 -17z m530 -8 c84
-13 18 -25 -70 -13 -42 6 -111 11 -153 12 -57 1 -70 3 -52 10 27 9 195 4 275
-9z m-1115 0 c0 -30 -137 -111 -162 -95 -20 12 5 53 52 86 25 17 110 24 110 9z
m743 -17 c-60 -18 -128 -60 -151 -93 -11 -15 -34 -63 -51 -108 -34 -87 -59
-119 -106 -129 -30 -7 -30 -7 7 19 28 20 48 49 79 114 64 135 150 210 244 210
11 1 1 -5 -22 -13z m444 8 c-4 -3 -10 -3 -14 0 -3 4 0 7 7 7 7 0 10 -3 7 -7z
m-1137 -67 c6 -24 10 -52 8 -62 -6 -30 -38 38 -38 81 0 46 14 38 30 -19z m476
8 c-6 -17 -8 -17 -24 0 -15 15 -15 18 -2 26 19 12 35 -3 26 -26z m-311 -161
c7 -49 -5 -69 -33 -54 -26 14 -62 89 -57 121 2 14 7 43 11 65 l6 40 34 -67
c18 -36 36 -84 39 -105z m254 133 c19 -20 21 -28 12 -45 -26 -47 -69 -13 -55
43 8 32 14 32 43 2z m-69 -51 c12 -25 23 -60 24 -78 1 -27 -2 -32 -23 -32 -30
0 -57 35 -73 97 -9 37 -9 50 1 62 19 23 45 5 71 -49z m-572 23 c-3 -36 -30
-46 -36 -15 -5 26 5 47 23 47 12 0 15 -8 13 -32z m465 -24 c19 -51 19 -126 -1
-146 -27 -27 -65 111 -48 177 10 38 28 26 49 -31z m-545 30 c32 -9 27 -27 -14
-49 -34 -18 -107 -25 -121 -11 -11 10 29 46 61 55 39 12 46 12 74 5z m245 -33
c45 -19 64 -37 53 -48 -15 -15 -186 39 -186 59 0 15 88 8 133 -11z m-92 -73
c18 -36 37 -118 26 -118 -24 0 -43 22 -68 77 -29 65 -35 94 -22 106 10 10 43
-23 64 -65z m-102 48 c8 -10 8 -27 0 -64 -12 -60 -47 -111 -60 -90 -16 24 -9
90 13 129 24 43 30 46 47 25z m718 -3 c-4 -3 -7 0 -7 7 0 7 3 10 7 7 3 -4 3
-10 0 -14z m-858 -94 c28 -48 27 -68 0 -43 -19 17 -59 84 -59 99 0 15 41 -24
59 -56z m391 53 c0 -11 -55 -88 -69 -97 -27 -16 6 80 33 97 15 10 36 10 36 0z
m76 -49 c9 -15 6 -21 -22 -34 l-32 -15 16 33 c18 38 23 40 38 16z m92 -62 c9
-5 -1 -10 -31 -13 -24 -3 -59 -12 -76 -21 -38 -19 -41 -6 -5 22 27 22 87 28
112 12z m-323 -15 c17 -12 15 -14 -31 -24 -50 -11 -104 -6 -104 9 0 28 102 40
135 15z m140 -33 c-10 -16 -31 -45 -48 -66 -27 -34 -30 -36 -42 -20 -11 15 -7
21 31 46 25 16 49 38 55 48 5 10 12 19 16 19 3 0 -3 -12 -12 -27z m325 20
c-174 -17 -257 -40 -310 -86 l-25 -22 20 24 c51 60 146 89 290 88 33 0 44 -2
25 -4z m-743 -76 c22 -12 22 -13 3 -25 -16 -10 -21 -9 -30 7 -18 34 -11 39 27
18z m67 -49 c12 -19 0 -48 -22 -56 -15 -5 -45 45 -38 64 8 20 45 15 60 -8z
m251 -2 c0 -30 -22 -30 -27 -1 -4 20 -2 25 11 23 9 -2 16 -12 16 -22z m-46
-12 c9 -20 9 -29 0 -41 -19 -22 -44 7 -35 41 8 33 20 33 35 0z m-141 4 c27
-27 7 -78 -30 -78 -27 0 -32 23 -13 59 17 34 25 37 43 19z m77 -20 c15 -38 5
-59 -25 -51 -15 4 -20 14 -20 37 0 56 24 63 45 14z m175 8 c0 -3 -5 -8 -12
-12 -7 -4 -8 -3 -4 4 7 12 16 16 16 8z"/>
<path d="M2630 1710 c-115 -61 -182 -115 -195 -158 l-7 -23 41 21 c23 11 41
26 41 34 0 44 87 99 198 126 45 10 72 31 72 54 0 17 -46 0 -150 -54z"/>
<path d="M193 1719 c-21 -48 -97 -132 -144 -162 -49 -30 -64 -49 -31 -41 10 3
34 -9 59 -31 112 -96 248 -98 326 -5 17 19 28 25 38 19 11 -6 7 -15 -16 -40
-97 -102 -282 -105 -382 -4 -43 42 -43 42 -43 16 0 -32 54 -88 115 -120 73
-38 179 -22 288 43 31 19 57 30 57 25 0 -34 -136 -106 -218 -116 -64 -7 -138
11 -196 48 l-46 29 0 -30 c0 -26 7 -32 67 -62 61 -30 76 -33 153 -33 86 0 117
10 185 60 20 14 21 13 17 -18 -6 -54 -57 -81 -161 -86 -100 -4 -176 11 -225
44 -35 24 -36 24 -36 4 0 -20 62 -54 123 -66 38 -8 34 -19 -10 -26 -30 -5 -46
-1 -75 18 -35 23 -38 24 -38 7 0 -10 11 -25 25 -32 27 -14 24 -30 -6 -30 -14
0 -19 -7 -19 -30 l0 -30 45 34 c86 66 218 70 336 11 27 -14 52 -25 56 -25 4 0
6 41 4 91 -4 111 9 165 60 251 21 36 39 69 39 72 0 3 -12 6 -27 6 -51 0 -150
56 -216 122 -35 35 -70 74 -78 87 l-15 23 -11 -23z m31 -66 c-10 -7 -29 -13
-43 -13 l-26 1 30 24 c23 19 32 21 43 13 12 -10 11 -14 -4 -25z m43 -30 c6
-17 -61 -35 -101 -27 -43 8 -38 24 7 24 18 0 39 5 47 10 18 12 42 9 47 -7z
m53 -52 c0 -11 -68 -41 -94 -41 -31 0 -126 29 -126 39 0 4 33 6 73 4 49 -3 80
0 97 10 24 13 50 6 50 -12z m34 -62 c-56 -62 -141 -69 -238 -19 -92 46 -90 73
2 29 82 -40 176 -35 218 12 12 13 21 16 28 9 6 -6 3 -17 -10 -31z m66 -308 c0
-19 -82 -42 -124 -35 l-41 7 64 14 c36 7 67 15 69 18 9 8 32 6 32 -4z m0 -51
c0 -21 -12 -24 -45 -10 -19 8 -19 8 5 18 36 15 40 14 40 -8z"/>
<path d="M2692 1679 c-68 -23 -116 -53 -136 -84 -9 -14 -13 -25 -9 -25 5 0 14
9 21 20 15 24 76 56 125 65 32 6 66 30 56 39 -2 2 -28 -5 -57 -15z"/>
<path d="M2695 1629 c-42 -23 -95 -62 -95 -70 0 -5 16 3 36 16 20 14 45 25 55
25 10 0 23 9 29 20 12 22 5 25 -25 9z"/>
<path d="M2663 1554 l-27 -27 24 -19 c24 -19 24 -19 36 4 16 28 18 68 4 68 -6
0 -23 -12 -37 -26z"/>
<path d="M656 1469 c-98 -16 -151 -88 -151 -204 1 -90 18 -137 68 -193 51 -55
123 -92 193 -99 96 -10 205 63 233 156 41 139 -32 300 -152 336 -55 16 -113
17 -191 4z m92 -51 c16 -26 19 -44 15 -80 -7 -56 -25 -67 -51 -30 -29 42 -33
61 -22 103 13 48 32 50 58 7z m80 26 c12 -4 22 -10 22 -15 0 -14 -44 -10 -66
6 -19 14 -19 14 1 15 11 0 30 -3 43 -6z m-178 -14 c0 -17 -47 -60 -65 -60 -28
0 -9 37 30 58 25 14 35 15 35 2z m266 -73 c-4 -16 -25 -34 -67 -56 -33 -18
-63 -30 -66 -28 -3 3 3 23 13 44 13 26 33 45 64 60 49 25 66 19 56 -20z m40
-57 c7 -32 6 -34 -9 -21 -9 7 -17 27 -17 44 0 40 17 24 26 -23z m-298 16 c15
-8 36 -23 46 -35 19 -21 19 -21 0 -21 -36 0 -89 20 -119 45 l-30 24 38 1 c21
0 50 -6 65 -14z m-98 -30 c9 -26 3 -66 -11 -66 -5 0 -9 20 -9 45 0 50 6 57 20
21z m208 -33 c-5 -25 -28 -28 -28 -4 0 12 6 21 16 21 9 0 14 -7 12 -17z m167
3 c19 -8 35 -19 35 -24 0 -13 -79 -22 -123 -15 -44 7 -68 30 -46 44 22 14 96
11 134 -5z m-221 -47 c-9 -16 -69 -39 -99 -39 -35 0 -31 18 8 35 39 17 101 20
91 4z m109 -29 c31 -37 65 -116 54 -127 -9 -8 -65 26 -86 53 -22 27 -30 114
-12 114 5 0 25 -18 44 -40z m-74 -17 c-12 -44 -62 -113 -75 -101 -13 13 15 85
46 118 17 18 32 31 35 29 2 -3 -1 -23 -6 -46z m215 10 c-3 -16 -18 -46 -32
-68 -21 -31 -27 -36 -30 -22 -6 27 5 60 29 90 27 35 41 34 33 0z m-356 -45 c7
-7 12 -19 12 -27 0 -11 -4 -10 -20 4 -21 19 -26 35 -12 35 4 0 13 -5 20 -12z
m205 -75 l32 -16 -28 -8 c-15 -4 -44 -5 -64 -2 l-36 6 22 19 c28 22 34 22 74
1z"/>
<path d="M1500 848 c0 -7 4 -18 8 -25 11 -17 36 1 29 21 -7 19 -37 22 -37 4z"/>
<path d="M1011 653 c0 -5 16 -21 35 -36 39 -33 49 -14 11 21 -23 22 -48 29
-46 15z"/>
<path d="M1000 601 c0 -22 25 -45 40 -36 16 10 12 21 -15 39 -24 16 -25 15
-25 -3z"/>
<path d="M851 505 c9 -11 21 -28 26 -39 6 -10 13 -14 16 -9 4 6 -8 23 -26 39
-17 16 -25 20 -16 9z"/>
<path d="M695 497 c11 -7 44 -35 73 -63 59 -58 77 -56 31 2 -41 53 -69 74 -99
73 -24 0 -24 -1 -5 -12z"/>
<path d="M780 503 c0 -5 17 -25 36 -46 47 -51 69 -35 24 17 -29 33 -60 48 -60
29z"/>
<path d="M1001 402 c-47 -49 -81 -98 -118 -168 -44 -84 -83 -187 -83 -216 0
-15 30 -8 50 12 16 16 33 20 90 20 59 0 72 -3 82 -20 7 -11 23 -20 35 -20 20
0 21 3 12 33 -5 17 -12 82 -15 142 -6 100 -4 117 19 189 39 121 24 127 -72 28z
m9 -87 c0 -31 -3 -35 -25 -35 -14 0 -25 3 -25 6 0 8 40 64 46 64 2 0 4 -16 4
-35z m-36 -67 c29 -12 43 -45 28 -60 -12 -12 -67 -2 -81 16 -7 9 -6 19 5 34
18 26 16 25 48 10z m19 -116 c21 -19 22 -48 1 -56 -30 -12 -82 -6 -104 12 -17
13 -20 24 -15 44 7 26 9 27 54 21 25 -3 54 -13 64 -21z"/>
<path d="M2138 413 c-35 -22 -99 -137 -105 -190 -7 -57 2 -86 39 -128 53 -61
113 -85 212 -85 l85 0 43 46 c53 57 65 78 74 131 14 95 -51 192 -154 227 -60
21 -159 20 -194 -1z m62 -32 c-10 -20 -47 -37 -57 -27 -10 10 29 46 49 46 15
0 17 -3 8 -19z m90 -36 c0 -38 -18 -95 -31 -95 -30 0 -36 102 -9 136 18 21 40
-1 40 -41z m91 5 c14 -11 18 -19 11 -20 -19 0 -52 19 -52 30 0 16 16 12 41
-10z m-161 -91 c18 -25 19 -30 6 -35 -32 -12 -121 61 -110 90 6 14 10 14 44
-5 21 -12 48 -35 60 -50z m191 17 c-29 -31 -99 -62 -111 -50 -14 14 1 31 60
63 62 34 89 27 51 -13z m-295 -80 c-9 -14 -21 -26 -26 -26 -18 0 -20 40 -4 77
l16 38 16 -32 c14 -29 14 -34 -2 -57z m334 36 c0 -24 -1 -25 -16 -10 -10 9
-14 24 -10 33 9 23 26 9 26 -23z m-152 -31 c-4 -19 -58 -29 -58 -10 0 17 31
38 48 32 7 -3 12 -13 10 -22z m-73 -11 c7 -11 -66 -50 -95 -50 -31 0 -20 22
21 42 38 20 65 23 74 8z m207 -1 c29 -16 6 -29 -52 -29 -50 0 -76 12 -66 29 9
14 91 14 118 0z m-162 -50 c0 -40 -36 -100 -56 -92 -20 7 -17 52 6 91 26 42
50 42 50 1z m80 -64 c0 -36 -5 -41 -27 -27 -17 11 -45 93 -38 112 11 27 65
-44 65 -85z m71 33 c-23 -37 -41 -47 -41 -23 0 28 20 55 41 55 l21 0 -21 -32z
m-262 -5 c12 -14 19 -28 17 -31 -7 -6 -66 37 -66 49 0 18 29 8 49 -18z m139
-70 c-10 -2 -26 -2 -35 0 -10 3 -2 5 17 5 19 0 27 -2 18 -5z"/>
<path d="M2498 132 c-15 -48 -30 -95 -33 -104 -7 -17 4 -18 145 -18 l153 0
-44 31 c-24 17 -78 65 -119 105 l-75 74 -27 -88z"/>
<path d="M545 64 c-38 -9 -75 -26 -75 -35 0 -17 21 -19 49 -4 39 20 115 20
131 0 7 -8 16 -15 21 -15 15 0 10 37 -5 43 -23 9 -100 16 -121 11z"/>
</g>
</svg>
